<svg width="85" height="85" fill="none" xmlns="http://www.w3.org/2000/svg"><path d="M33.147 58.505h-5.744c-.449 0-.841-.391-.841-.902v-4.299c0-.48.364-.902.84-.902h5.745c.448 0 .84.391.84.902v4.299c0 .511-.364.902-.84.902zm25.779 0h-5.744c-.448 0-.84-.391-.84-.902v-4.299c0-.48.364-.902.84-.902h5.744c.449 0 .84.391.84.902v4.299c-.027.511-.391.902-.84.902zm-25.779-8.928h-5.744c-.449 0-.841-.391-.841-.902v-4.269c0-.481.364-.902.84-.902h5.745c.448 0 .84.39.84.902v4.299c0 .48-.364.872-.84.872zm12.89 0h-5.745c-.448 0-.84-.391-.84-.902v-4.269c0-.481.364-.902.84-.902h5.745c.448 0 .84.39.84.902v4.299c0 .48-.392.872-.84.872zm12.889 0h-5.744c-.448 0-.84-.391-.84-.902v-4.269c0-.481.364-.902.84-.902h5.744c.449 0 .84.39.84.902v4.299c-.027.48-.391.872-.84.872zm-12.889 8.928h-5.745c-.448 0-.84-.391-.84-.902v-4.299c0-.48.364-.902.84-.902h5.745c.448 0 .84.391.84.902v4.299c0 .511-.392.902-.84.902z" fill="#F79C51"/><path d="M64.054 20.928H59.29v2.736c0 1.112-.84 2.014-1.877 2.014h-1.737c-1.037 0-1.878-.902-1.878-2.014v-2.736h-7.93v2.736c0 1.112-.84 2.014-1.877 2.014h-1.737c-1.037 0-1.878-.902-1.878-2.014v-2.736h-7.93v2.736c0 1.112-.84 2.014-1.877 2.014H28.83c-1.036 0-1.877-.902-1.877-2.014v-2.736H22.19c-1.429 0-2.606 1.263-2.606 2.796V36.77h47.048V23.724c.028-1.533-1.15-2.796-2.578-2.796z" fill="#47A8A5"/><path d="M31.506 60.266h-5.744c-.449 0-.84-.39-.84-.902v-4.298c0-.481.363-.902.84-.902h5.744c.448 0 .84.39.84.902v4.298c0 .512-.364.902-.84.902zm25.779 0h-5.744c-.448 0-.84-.39-.84-.902v-4.298c0-.481.364-.902.84-.902h5.744c.449 0 .841.39.841.902v4.298c-.028.512-.392.902-.84.902zM44.227 22.84h8.015m-21.436 0h8.014m-13.394 0h-4.82c-1.43 0-2.606 1.262-2.606 2.796v13.046h47.047V25.605c0-1.533-1.177-2.795-2.606-2.795" stroke="#5B5B5B" stroke-miterlimit="10"/><path d="M57.622 22.84h4.82c1.428 0 2.605 1.262 2.605 2.796v38.268c0 1.533-1.177 2.795-2.606 2.795H20.606c-1.43 0-2.606-1.262-2.606-2.795V25.605c0-1.533 1.177-2.795 2.606-2.795h4.848m18.773.03h8.015m-21.436 0h8.014" stroke="#5B5B5B" stroke-miterlimit="10"/><path d="M25.426 22.84h-4.82c-1.43 0-2.606 1.262-2.606 2.796v13.046h47.047V25.605c0-1.533-1.177-2.795-2.606-2.795" stroke="#5B5B5B" stroke-miterlimit="10"/><path d="M55.8 27.44h-1.737c-1.037 0-1.878-.903-1.878-2.015v-5.41c0-1.113.841-2.015 1.878-2.015H55.8c1.037 0 1.878.902 1.878 2.014v5.441c0 1.082-.841 1.984-1.878 1.984zm-13.394 0H40.67c-1.037 0-1.877-.903-1.877-2.015v-5.41c0-1.113.84-2.015 1.877-2.015h1.737c1.037 0 1.878.902 1.878 2.014v5.441c-.028 1.082-.869 1.984-1.878 1.984zm-13.422 0h-1.737c-1.037 0-1.878-.903-1.878-2.015v-5.41c0-1.113.841-2.015 1.878-2.015h1.737c1.037 0 1.877.902 1.877 2.014v5.441c0 1.082-.84 1.984-1.877 1.984zm2.522 23.898h-5.744c-.449 0-.84-.39-.84-.902v-4.269c0-.48.363-.901.84-.901h5.744c.448 0 .84.39.84.901v4.3c0 .48-.364.871-.84.871zm12.89 0H38.65c-.448 0-.84-.39-.84-.902v-4.269c0-.48.364-.901.84-.901h5.745c.448 0 .84.39.84.901v4.3c0 .48-.392.871-.84.871zm12.889 0h-5.744c-.448 0-.84-.39-.84-.902v-4.269c0-.48.364-.901.84-.901h5.744c.449 0 .841.39.841.901v4.3c-.028.48-.392.871-.84.871zm-12.889 8.928H38.65c-.448 0-.84-.39-.84-.902v-4.298c0-.481.364-.902.84-.902h5.745c.448 0 .84.39.84.902v4.298c0 .512-.392.902-.84.902zm-.169-37.426h8.015m-21.436 0h8.014" stroke="#5B5B5B" stroke-miterlimit="10"/><path d="M25.426 22.84h-4.82c-1.43 0-2.606 1.262-2.606 2.796v13.046h47.047V25.605c0-1.533-1.177-2.795-2.606-2.795" stroke="#5B5B5B" stroke-miterlimit="10"/></svg>