<svg width="85" height="85" fill="none" xmlns="http://www.w3.org/2000/svg"><path d="M49.683 56.418h-3.661c-.116 0-.232-.114-.174-.228l2.789-6.962c.058-.114-.058-.228-.175-.228h-5.926c-.059 0-.117.057-.175.114l-5.345 13.238c-.059.114.058.228.174.228h4.184c.116 0 .174.114.174.229l-1.627 7.588c-.058.172.232.286.29.115L49.8 56.646c.058-.114 0-.228-.116-.228z" fill="#FFCA05"/><path d="M66.006 26.928c.058-.456.755-4.45-2.383-7.418-2.498-2.396-6.45-3.195-10.052-2.054-.175-.228-2.673-4.28-7.903-4.45-5.23-.172-6.973 3.765-7.089 3.937-2.266-1.541-5.23-1.77-7.554-.514-3.08 1.655-3.254 4.964-3.254 5.193-3.137-1.085-6.74-.229-8.832 2.054-1.917 2.11-2.324 5.078-.988 7.646-.465.228-3.951 2.34-3.951 5.763 0 4.165 3.777 7.589 8.425 7.589h42.477c4.59-.114 8.193-4.109 8.193-9.13 0-4.45-3.254-7.703-7.09-8.616z" fill="#F05B46"/><path d="M63.006 28.07c.058-.457.755-4.451-2.383-7.419-2.498-2.396-6.45-3.195-10.052-2.054-.175-.228-2.673-4.28-7.903-4.45-5.23-.172-6.973 3.766-7.089 3.937-2.266-1.54-5.23-1.77-7.554-.514-3.08 1.655-3.254 4.964-3.254 5.193-3.137-1.085-6.74-.229-8.832 2.054-1.917 2.111-2.324 5.078-.988 7.646-.465.228-3.951 2.34-3.951 5.763 0 4.165 3.777 7.589 8.425 7.589h42.477c4.59-.114 8.193-4.108 8.193-9.13 0-4.45-3.254-7.703-7.09-8.616zm0-.115H52.663m0 17.803V29.78m-10.46-15.405v22.824M30.582 16.657v18.83m-18.594 0H29.42m1.383-7.31h-5.946m45.238 9.022h-9.297" stroke="#5B5B5B" stroke-miterlimit="10"/><path d="M52.663 30.922c1.604 0 2.905-1.277 2.905-2.853 0-1.575-1.3-2.853-2.905-2.853-1.605 0-2.906 1.277-2.906 2.853 0 1.576 1.301 2.853 2.906 2.853zm8.135 9.13c1.604 0 2.905-1.277 2.905-2.853 0-1.576-1.3-2.853-2.905-2.853-1.605 0-2.906 1.277-2.906 2.853 0 1.576 1.301 2.853 2.906 2.853zm-18.595-.571c1.605 0 2.906-1.277 2.906-2.853 0-1.575-1.301-2.853-2.906-2.853-1.604 0-2.905 1.278-2.905 2.853 0 1.576 1.3 2.853 2.905 2.853zM30.582 38.34c1.605 0 2.905-1.277 2.905-2.853 0-1.576-1.3-2.853-2.905-2.853-1.605 0-2.905 1.277-2.905 2.853 0 1.576 1.3 2.853 2.905 2.853zm-5.811-7.418c1.605 0 2.906-1.277 2.906-2.853 0-1.575-1.301-2.853-2.906-2.853-1.604 0-2.905 1.277-2.905 2.853 0 1.576 1.3 2.853 2.905 2.853z" fill="#5B5B5B"/><path d="M46.794 57.284h-3.66c-.117 0-.233-.114-.175-.228l2.847-6.962c.058-.114-.058-.228-.174-.228h-5.927c-.058 0-.116.057-.174.114l-5.346 13.238c-.059.114.058.228.174.228h4.184c.116 0 .174.114.174.229l-1.627 7.589c-.058.17.232.285.29.114l9.588-13.866c.058-.114 0-.228-.174-.228z" stroke="#5B5B5B" stroke-miterlimit="10" stroke-linecap="round" stroke-linejoin="round"/></svg>