<svg width="85" height="85" fill="none" xmlns="http://www.w3.org/2000/svg"><path d="M31.982 46.286h-1.998a1.44 1.44 0 01-1.41-1.434v-6.81c0-.717.587-1.434 1.41-1.434h1.997c.706 0 1.41.597 1.41 1.434v6.81c0 .836-.587 1.434-1.41 1.434zm22.329 0h-1.998a1.44 1.44 0 01-1.41-1.434v-6.81c0-.717.588-1.434 1.41-1.434h1.998c.706 0 1.41.597 1.41 1.434v6.81c0 .836-.587 1.434-1.41 1.434z" fill="#4EADDD"/><path d="M54.547 39.475v6.572c0 .717-.588 1.434-1.41 1.434h-1.998a1.44 1.44 0 01-1.41-1.434v-6.452l-17.63.478v6.093c0 .717-.587 1.434-1.41 1.434h-1.998a1.44 1.44 0 01-1.41-1.434v-5.974l-9.167.24v17.921c0 2.27 1.88 4.182 4.113 4.182H63.95c2.233 0 4.113-1.912 4.113-4.182V39.236l-13.515.24z" fill="#F79C51"/><path d="M67.71 24.78H19.053c-1.41 0-2.703 1.194-2.703 2.747v10.754c0 1.433 1.175 2.748 2.703 2.748h8.462v-1.554c0-.717.587-1.433 1.41-1.433h1.998c.705 0 1.41.597 1.41 1.433v1.434h17.629v-1.553c0-.717.588-1.434 1.41-1.434h1.998c.705 0 1.41.598 1.41 1.434v1.553h13.163c1.41 0 2.703-1.195 2.703-2.748V27.408c-.235-1.434-1.41-2.629-2.938-2.629z" fill="#F79C51"/><path d="M30.806 47.48h-1.998a1.44 1.44 0 01-1.41-1.433v-6.81c0-.718.588-1.434 1.41-1.434h1.998c.705 0 1.41.597 1.41 1.433v6.81c0 .837-.587 1.434-1.41 1.434zm22.33 0h-1.998a1.44 1.44 0 01-1.41-1.433v-6.81c0-.718.587-1.434 1.41-1.434h1.998c.705 0 1.41.597 1.41 1.433v6.81c0 .837-.587 1.434-1.41 1.434zm-3.29-5.376h-17.63" stroke="#5B5B5B" stroke-miterlimit="10"/><path d="M27.515 42.104H16.703c-1.41 0-2.703-1.195-2.703-2.748V28.602c0-1.433 1.175-2.747 2.703-2.747h48.773c1.41 0 2.703 1.194 2.703 2.747v10.754c0 1.434-1.175 2.748-2.703 2.748h-10.93" stroke="#5B5B5B" stroke-miterlimit="10"/><path d="M51.02 25.974H31.042l1.88-4.78A1.77 1.77 0 0134.568 20h12.928c.705 0 1.41.478 1.646 1.195l1.88 4.779zm15.044 15.533v19.116c0 2.27-1.88 4.182-4.113 4.182H20.229c-2.233 0-4.113-1.912-4.113-4.182V42.701" stroke="#5B5B5B" stroke-miterlimit="10"/></svg>