<svg width="85" height="85" fill="none" xmlns="http://www.w3.org/2000/svg"><path fill-rule="evenodd" clip-rule="evenodd" d="M55.84 18.897c-1.325 2.37-4.734 8.327-8.206 11.593-.568.513-1.136 1.025-1.64 1.473l-.127.129-1.452 1.024 4.924 10.44c.757 1.986.442 4.164-1.452 4.869-1.894.704-4.103-.32-4.86-2.242-1.2-3.075-2.462-6.149-3.662-9.224l.19-.448-13.256 9.352c-1.515 1.345-3.03 2.626-4.545 3.971-1.136 1.41-1.263 3.267-.316 4.355 1.073 1.282 2.967 1.474 4.293.32l1.136-.96c-.82 1.153-.82 2.69.126 3.843 1.01 1.217 2.651 1.41 3.914.577-1.01 1.153-1.073 2.882-.063 4.035 1.073 1.281 2.966 1.473 4.292.32l2.083-1.793c-.82 1.153-.82 2.69.126 3.843 1.073 1.28 2.967 1.473 4.293.32 4.544-4.74 8.395-8.519 11.172-11.08 3.409-3.268 6.439-7.303 9.469-10.89 2.588-3.074 8.269-8.327 9.468-10.248-5.176-4.484-11.74-8.391-15.907-13.58z" fill="#4EADDD"/><path d="M24.226 55.022l8.458-7.238m-4.608 11.85l8.395-7.302M34.01 62.516l6.375-5.508" stroke="#000" stroke-miterlimit="10" stroke-linecap="round" stroke-linejoin="round"/><path d="M24.037 47.144L14 28.056l11.93-8.775c6.313 5.7 8.08 4.868 15.718 9.992l6.69 14.284c.758 1.985.443 4.163-1.451 4.868-1.894.704-4.103-.32-4.86-2.242-1.2-3.075-2.462-6.15-3.662-9.224a64.658 64.658 0 00-4.418 2.563 78.794 78.794 0 00-14.518 11.593c-1.137 1.41-1.263 3.267-.316 4.355 1.073 1.282 2.967 1.474 4.292.32l1.136-.96c-.82 1.153-.82 2.69.127 3.843 1.01 1.217 2.65 1.41 3.913.577-1.01 1.153-1.073 2.882-.063 4.035 1.073 1.281 2.967 1.473 4.293.32l2.083-1.793c-.82 1.153-.82 2.69.126 3.843 1.073 1.28 2.967 1.473 4.292.32 4.545-4.74 8.396-8.519 11.173-11.08 3.409-3.268 6.439-7.303 9.468-10.89 2.588-3.074 8.27-8.327 9.469-10.248-5.05-4.484-11.552-8.391-15.78-13.515-1.326 2.37-4.735 8.327-8.207 11.593a293.88 293.88 0 01-1.641 1.474l-.126.128" stroke="#000" stroke-miterlimit="10"/></svg>