<svg width="85" height="85" fill="none" xmlns="http://www.w3.org/2000/svg"><path d="M73.947 40.47l-4.974-21.586c0-.622-.83-1.038-1.45-.83L56.33 21.997c-.621.208-.829.83-.621 1.246l.621 2.905c-.207-.83-.829-1.245-1.658-1.037L24.417 31.96c-.622.207-1.244.83-1.036 1.66l.414 1.868c0-.623-.622-.83-1.243-.83l-3.938.83c-.621.208-.829.83-.829 1.453 0 .415.208.83.208 1.245 0-.415-.622-.83-1.037-.623l-2.28.415c-.414 0-.828.623-.62 1.038l1.657 7.057c0 .415.622.83 1.036.623l2.28-.623c.414 0 .829-.623.622-1.038l.207 1.245c.207.623.829 1.038 1.45.83l3.938-.83c.622-.207 1.036-.622.829-1.245.207.623.207 1.245.414 1.868.208.83.83 1.245 1.658 1.038l30.05-6.642c.828-.207 1.243-.83 1.036-1.66l-.207-.83.828 3.528c.208.623.622.83 1.244.83l11.812-1.245c.622-.208 1.037-.83 1.037-1.453z" fill="#4EADDD"/><path d="M56.142 43.375l-30.05 6.849c-.829.207-1.45-.208-1.658-1.038l-3.108-13.49c-.207-.83.414-1.453 1.036-1.66l30.05-6.642c.828-.208 1.45.207 1.657 1.037l2.901 13.49c.415.623 0 1.246-.828 1.454z" stroke="#5B5B5B" stroke-miterlimit="10"/><path d="M22.984 48.356l-3.73.83c-.622.208-1.244-.208-1.244-.83l-2.072-9.547c-.208-.415 0-1.038.621-1.246l3.938-.83c.622 0 1.243.208 1.243.83l2.073 9.547c.207.623-.208 1.246-.83 1.246z" stroke="#5B5B5B" stroke-miterlimit="10"/><path d="M16.974 48.356l-2.28.623a1.14 1.14 0 01-1.036-.623L12 41.299c0-.415.207-.83.622-1.037l2.487-.83c.414 0 .829.207 1.036.622l1.658 7.057c0 .622-.415 1.037-.83 1.245zm53.881-4.359l-11.812 1.246c-.622 0-1.036-.208-1.243-.83l-4.145-18.887c-.208-.623.207-1.038.621-1.246l11.191-4.15c.622-.208 1.45.207 1.45.83l4.767 21.584c.208.623-.207 1.246-.829 1.453z" stroke="#5B5B5B" stroke-miterlimit="10"/><path d="M42.05 47.11v10.378m-8.086 9.566l8-10m8 10l-8-10" stroke="#5B5B5B" stroke-miterlimit="10" stroke-linecap="round"/></svg>