<svg width="85" height="85" fill="none" xmlns="http://www.w3.org/2000/svg"><path d="M39.65 45.87c.18.18.54.36.9.54v-2.34c-.36.09-.72.18-.9.36-.36.54-.18 1.17 0 1.44zm2.52 4.68v5.22c.36-.09.81-.27 1.08-.45.45-.36.81-.72.9-1.35.09-.72-.18-1.62-.72-2.25-.36-.45-.81-.81-1.26-1.17z" fill="#47A8A5"/><path d="M66.92 54.42c-.63-10.98-10.44-22.05-12.6-24.3H33.35c-2.07 2.34-11.97 13.32-12.6 24.3-.09 2.07-.27 5.22 1.71 8.37.09.18.18.36.36.54 2.16 3.06 5.76 4.77 9.54 4.77H55.4c3.78 0 7.38-1.71 9.54-4.77.09-.18.18-.36.36-.54 1.8-3.15 1.71-6.3 1.62-8.37zm-19.53 0c-.18 1.35-.99 2.52-2.16 3.33-.9.63-1.98.99-3.06 1.17v1.8c0 .27-.36.54-.72.54-.45 0-.72-.27-.72-.54v-1.8c-.63-.09-1.17-.18-1.71-.45-2.79-1.08-3.51-3.6-3.6-4.05-.18-.81.36-1.62 1.26-1.8.9-.18 1.8.36 1.98 1.17 0 .09.36 1.35 1.71 1.89.09.09.27.09.36.09v-6.03c-.18-.09-.27-.09-.45-.18-1.08-.45-2.34-.9-3.15-1.89-1.53-1.62-1.35-3.87.27-5.31.81-.72 1.8-1.08 3.06-1.26h.18v-1.8c0-.27.36-.54.72-.54.45 0 .72.27.72.54v1.8c.54.09 1.17.18 1.8.45.54.18.99.54 1.44.9.72.54.81 1.53.18 2.16-.63.63-1.71.72-2.34.18-.18-.18-.45-.27-.63-.36-.09-.09-.27-.09-.36-.09v2.88c.09 0 .18.09.27.09 1.44.63 2.79 1.53 3.69 2.7 1.08 1.17 1.53 2.88 1.26 4.41zm7.74-36.45s-7.38 3.33-7.47 3.33c-.36.09-.72 0-.9-.36l-2.61-5.13c-.54-1.08-2.07-1.08-2.7 0l-2.61 5.13c-.09.36-.54.45-.81.36-.09 0-7.47-3.33-7.47-3.33-.72-.27-1.35.81-.99 1.71l2.88 7.65c.09.27.36.45.63.45h19.53c.27 0 .54-.18.63-.45l2.88-7.65c.36-.99-.27-2.07-.99-1.71z" fill="#47A8A5"/><path d="M52.7 69c3.78 0 7.38-1.71 9.54-4.77.09-.18.18-.36.36-.54 1.98-3.15 1.8-6.3 1.71-8.37-.63-10.98-10.44-22.05-12.6-24.3H30.65c-2.07 2.34-11.97 13.32-12.6 24.3-.09 2.07-.27 5.22 1.71 8.37.09.18.18.36.36.54 2.16 3.06 5.76 4.77 9.54 4.77H52.7zm.63-49.23s-7.38 3.33-7.47 3.33c-.36.09-.72 0-.9-.36l-2.61-5.13c-.54-1.08-2.07-1.08-2.7 0l-2.61 5.13c-.09.36-.54.45-.81.36-.09 0-7.47-3.33-7.47-3.33-.72-.27-1.35.81-.99 1.71l2.88 7.65c.09.27.36.45.63.45h19.53c.27 0 .54-.18.63-.45l2.88-7.65c.36-.99-.27-2.07-.99-1.71z" stroke="#5B5B5B" stroke-miterlimit="10"/><path d="M46.04 49.83a9.602 9.602 0 00-3.69-2.7c-.09 0-.18-.09-.27-.09v-2.88c.09 0 .27.09.36.09.27.09.45.27.63.36.72.54 1.8.45 2.34-.18.63-.63.54-1.62-.18-2.16-.45-.36-.9-.63-1.44-.9-.63-.27-1.26-.45-1.8-.45v-1.8c0-.27-.36-.54-.72-.54-.45 0-.72.27-.72.54v1.98h-.18c-1.26.18-2.25.63-3.06 1.26-1.53 1.44-1.71 3.69-.45 5.31.81.99 2.07 1.53 3.15 1.89.18.09.36.09.45.18v6.03c-.09 0-.27-.09-.36-.09-1.35-.54-1.62-1.89-1.71-1.89-.18-.81-1.08-1.35-1.98-1.17-.9.18-1.44.99-1.26 1.8.09.45.81 2.97 3.6 4.05.54.18 1.17.36 1.71.45v1.8c0 .27.36.54.72.54.45 0 .72-.27.72-.54v-1.8c1.08-.09 2.16-.54 3.06-1.17 1.17-.81 1.98-1.98 2.16-3.33.54-1.53.09-3.24-1.08-4.59zm-6.39-3.96c-.27-.27-.36-.9.09-1.35.18-.18.54-.27.9-.36v2.34c-.45-.18-.81-.45-.99-.63zm4.41 8.1c-.09.54-.36.99-.9 1.35-.36.27-.72.36-1.08.45v-5.22c.45.36.9.72 1.26 1.08.63.72.9 1.62.72 2.34z" stroke="#5B5B5B" stroke-miterlimit="10"/><path d="M46.04 49.83a9.602 9.602 0 00-3.69-2.7c-.09 0-.18-.09-.27-.09v-2.88c.09 0 .27.09.36.09.27.09.45.27.63.36.72.54 1.8.45 2.34-.18.63-.63.54-1.62-.18-2.16-.45-.36-.9-.63-1.44-.9-.63-.27-1.26-.45-1.8-.45v-1.8c0-.27-.36-.54-.72-.54-.45 0-.72.27-.72.54v1.98h-.18c-1.26.18-2.25.63-3.06 1.26-1.53 1.44-1.71 3.69-.45 5.31.81.99 2.07 1.53 3.15 1.89.18.09.36.09.45.18v6.03c-.09 0-.27-.09-.36-.09-1.35-.54-1.62-1.89-1.71-1.89-.18-.81-1.08-1.35-1.98-1.17-.9.18-1.44.99-1.26 1.8.09.45.81 2.97 3.6 4.05.54.18 1.17.36 1.71.45v1.8c0 .27.36.54.72.54.45 0 .72-.27.72-.54v-1.8c1.08-.09 2.16-.54 3.06-1.17 1.17-.81 1.98-1.98 2.16-3.33.54-1.53.09-3.24-1.08-4.59zm-6.39-3.96c-.27-.27-.36-.9.09-1.35.18-.18.54-.27.9-.36v2.34c-.45-.18-.81-.45-.99-.63zm4.41 8.1c-.09.54-.36.99-.9 1.35-.36.27-.72.36-1.08.45v-5.22c.45.36.9.72 1.26 1.08.63.72.9 1.62.72 2.34z" stroke="#5B5B5B" stroke-miterlimit="10"/></svg>