<svg width="85" height="85" fill="none" xmlns="http://www.w3.org/2000/svg"><path d="M39 38.726c.2.2.6.4 1 .6v-2.4c-.4.1-.7.2-.9.4-.5.4-.3 1.1-.1 1.4zm2.6 5v5.5c.4-.1.8-.3 1.2-.5.5-.3.8-.8.9-1.4.1-.8-.2-1.7-.8-2.4-.3-.5-.8-.9-1.3-1.2z" fill="#4EADDD"/><path d="M44.2 16.126c-14.7 0-26.5 11.9-26.5 26.5s11.9 26.5 26.5 26.5 26.5-11.9 26.5-26.5-11.9-26.5-26.5-26.5zm3 31.7c-.2 1.4-1.1 2.7-2.3 3.5-1 .7-2.1 1.1-3.3 1.2v1.9c0 .3-.4.5-.8.5s-.8-.2-.8-.5v-1.9c-.6-.1-1.2-.2-1.8-.4-2.9-1.2-3.7-3.8-3.8-4.3-.2-.9.4-1.7 1.4-1.9 1-.2 1.9.4 2.1 1.2 0 .1.4 1.5 1.8 2 .1 0 .3.1.4.1v-6.3c-.2-.1-.3-.1-.5-.2-1.2-.4-2.5-.9-3.3-2-1.4-1.7-1.2-4.2.4-5.7.8-.7 1.9-1.2 3.2-1.4h.2v-1.8c0-.3.4-.5.8-.5s.8.2.8.5v1.9c.6.1 1.2.2 1.9.5.5.2 1.1.5 1.5.9.7.6.8 1.6.2 2.3-.6.7-1.8.7-2.5.2-.2-.2-.5-.3-.7-.4-.2-.2-.3-.2-.5-.2v3c.1 0 .2.1.3.1 1.6.7 2.9 1.7 3.9 2.8 1.2 1.5 1.7 3.2 1.4 4.9z" fill="#4EADDD"/><path d="M40.8 65.126c12.15 0 22-9.85 22-22s-9.85-22-22-22-22 9.85-22 22 9.85 22 22 22z" stroke="#5B5B5B" stroke-miterlimit="10"/><path d="M45.8 42.926c-1-1.2-2.3-2.2-3.9-2.8-.1 0-.2-.1-.3-.1v-3c.1 0 .2.1.4.1.3.1.5.3.7.4.7.6 1.9.5 2.5-.2.6-.7.6-1.7-.2-2.3-.5-.4-1-.7-1.5-.9-.7-.3-1.3-.4-1.9-.5v-1.9c0-.3-.4-.5-.8-.5s-.8.2-.8.5v1.8h-.2c-1.3.2-2.4.6-3.2 1.4-1.7 1.5-1.9 3.9-.4 5.7.9 1.1 2.2 1.6 3.3 2 .2.1.3.1.5.2v6.3c-.1 0-.3-.1-.4-.1-1.4-.6-1.8-2-1.8-2-.2-.9-1.2-1.4-2.1-1.2-1 .2-1.6 1.1-1.4 1.9.1.5.9 3.1 3.8 4.3.6.2 1.2.4 1.8.4v1.9c0 .3.4.5.8.5s.8-.2.8-.5v-1.9c1.2-.1 2.3-.5 3.3-1.2 1.3-.8 2.1-2.1 2.3-3.5.4-1.6-.1-3.3-1.3-4.8zm-6.8-4.2c-.3-.3-.4-1 .1-1.4.2-.2.5-.3.9-.4v2.4c-.4-.1-.8-.3-1-.6zm4.7 8.6c-.1.6-.4 1-.9 1.4-.4.2-.8.4-1.2.5v-5.5c.5.3 1 .7 1.3 1.2.7.7.9 1.6.8 2.4z" stroke="#5B5B5B" stroke-miterlimit="10"/><path d="M40.8 69.926c-14.8 0-26.8-12-26.8-26.8 0-12.1 8.1-22.7 19.7-25.9l.2.8c-11.3 3.1-19.1 13.4-19.1 25.1 0 14.4 11.7 26 26 26s26-11.7 26-26c0-13.5-10.6-24.9-24.1-26l.1-.8c13.9 1 24.8 12.8 24.8 26.8.1 14.8-12 26.8-26.8 26.8z" fill="#5B5B5B"/><path d="M34 20.426l3.7-3.3c.2-.2.1-.5-.1-.6l-4.7-1.5c-.3-.1-.5.1-.5.4l1 4.8c0 .3.4.4.6.2z" fill="#5B5B5B"/></svg>