<svg width="88" height="88" fill="none" xmlns="http://www.w3.org/2000/svg"><path d="M43.846 58.206c0 4.263-3.44 6.433-7.682 6.433-2.024 0-8.023.174-12.803-2.573-6.402-3.002-9.389-8.148-8.962-8.148.427 0 6.708 3.831 11.523 2.144 5.548-1.715 3.84-5.146 10.242-5.575 4.243 0 7.682 3.456 7.682 7.72z" fill="#F79C51"/><path d="M42.667 60.565c0 4.263-3.577 6.433-7.99 6.433-2.105 0-8.343.174-13.315-2.573-6.657-3.002-9.764-8.148-9.32-8.148.443 0 6.976 3.831 11.983 2.144 5.77-1.715 3.995-5.146 10.653-5.575 4.412 0 7.989 3.456 7.989 7.72z" stroke="#5B5B5B"/><path d="M46.205 58.206c0 4.263 3.577 6.433 7.99 6.433 2.105 0 8.343.174 13.315-2.573 6.657-3.002 9.764-8.148 9.32-8.148-.444 0-6.976 3.831-11.983 2.144-5.77-1.715-3.995-5.146-10.653-5.575-4.412 0-7.989 3.456-7.989 7.72z" fill="#F79C51"/><path d="M46.205 60.565c0 4.263 3.577 6.433 7.99 6.433 2.105 0 8.343.174 13.315-2.573 6.657-3.002 9.764-8.148 9.32-8.148-.444 0-6.976 3.831-11.983 2.144-5.77-1.715-3.995-5.146-10.653-5.575-4.412 0-7.989 3.456-7.989 7.72z" stroke="#5B5B5B"/><path fill-rule="evenodd" clip-rule="evenodd" d="M41.405 39.221c-2.023 5.208-7.885 7.79-13.093 5.766-4.89-1.9-7.463-7.183-6.085-12.132a2.254 2.254 0 01-.047-.018l-1.886-.732a2.023 2.023 0 111.466-3.772l1.885.733c.144.055.277.126.4.208 2.683-3.388 7.355-4.792 11.594-3.145 5.208 2.023 7.79 7.885 5.766 13.092zm-3.393-1.067a6.285 6.285 0 11-11.716-4.552 6.285 6.285 0 0111.716 4.552z" fill="#4EADDD"/><mask id="a" fill="#fff"><path fill-rule="evenodd" clip-rule="evenodd" d="M40.393 40.233c-2.023 5.207-7.885 7.789-13.092 5.766-4.89-1.9-7.464-7.184-6.086-12.133a2.962 2.962 0 01-.046-.017l-1.886-.733a2.023 2.023 0 011.465-3.771l1.886.732c.143.056.277.126.4.209 2.682-3.388 7.354-4.793 11.593-3.146 5.208 2.024 7.79 7.885 5.766 13.093zM37 39.166a6.285 6.285 0 11-11.716-4.553A6.285 6.285 0 0137 39.166z"/></mask><path d="M21.215 33.866l.964.269.249-.894-.873-.315-.34.94zm-.046-.017l.362-.932-.362.932zm-1.886-.733l-.362.932.362-.932zm3.75-2.83l-.558.83.768.516.574-.726-.784-.62zm3.905 16.645c5.723 2.223 12.164-.614 14.387-6.336l-1.864-.724a9.116 9.116 0 01-11.798 5.195l-.724 1.865zm-6.686-13.333c-1.515 5.44 1.313 11.245 6.687 13.333l.724-1.865a9.117 9.117 0 01-5.484-10.931l-1.927-.537zm1.303-.672l-.024-.01-.724 1.865.069.026.679-1.881zm-.024-.01l-1.886-.732-.724 1.864 1.886.733.724-1.864zm-1.886-.732a1.023 1.023 0 01-.583-1.324l-1.864-.724a3.023 3.023 0 001.723 3.912l.724-1.864zm-.583-1.324a1.023 1.023 0 011.324-.583l.724-1.865a3.023 3.023 0 00-3.912 1.724l1.864.724zm1.324-.583l1.886.732.724-1.864-1.886-.733-.724 1.865zm1.886.732c.074.029.141.065.203.106l1.117-1.659a3.034 3.034 0 00-.596-.31l-.724 1.863zm12.718-4.8c-4.66-1.811-9.793-.266-12.74 3.456l1.567 1.242a9.12 9.12 0 0110.448-2.834l.725-1.865zm6.335 14.386c2.223-5.722-.613-12.163-6.335-14.387l-.725 1.865a9.116 9.116 0 015.196 11.798l1.864.724zm-12.82 3.085a7.285 7.285 0 009.427-4.152l-1.864-.725a5.285 5.285 0 01-6.84 3.012l-.724 1.865zm-4.153-9.428a7.284 7.284 0 004.152 9.428l.725-1.865a5.285 5.285 0 01-3.012-6.84l-1.865-.724zm9.429-4.153a7.284 7.284 0 00-9.429 4.152l1.865.725a5.285 5.285 0 016.84-3.012l.724-1.864zm4.151 9.429a7.285 7.285 0 00-4.151-9.428l-.725 1.864a5.284 5.284 0 013.012 6.84l1.864.724z" fill="#5B5B5B" mask="url(#a)"/></svg>