<svg width="85" height="85" fill="none" xmlns="http://www.w3.org/2000/svg"><path d="M23.9 51.6l1.4-1.2c2.3-1.4 4.7-1.3 7.5-1.2 1.5.1 3.8.3 6.5 1.2 1.7.1 3.1.2 4.1.2 3.4.3 7.2.7 9.1 2.1.5.4 1 .9 1.1 1.6.1.8-.3 1.5-.5 1.8-.6.8-1.5 1.1-2.7 1.5H37.1l12.9-.1c3.6-.9 7.3-1.7 10.9-2.6 1.8-2.6 1.8-3.5 3.6-6.1.7-1 3.5-3.4 5.6-2.8 1.9.6 1.7 4.1 1 5.3-2 3.1-4 6.2-5.9 9.3-.5.7-1.2 1.3-2 1.6l-13.1 4.2c-.1 0-.3.1-.4.1-.5.3-1 .4-1.6.5l-21.4 1.1c-1.1.1-2.2-.4-2.9-1.2l.1-15.3z" fill="#F05B46"/><path d="M46.937 38.286c.079-3.202-4.288-5.907-9.754-6.042-5.466-.135-9.961 2.352-10.04 5.554-.079 3.203 4.288 5.908 9.754 6.042 5.466.135 9.961-2.352 10.04-5.554zM57.24 25.96c3.39-4.29 4.102-9.377 1.589-11.364-2.514-1.986-7.3-.118-10.69 4.171-3.39 4.29-4.102 9.378-1.588 11.365 2.513 1.986 7.299.119 10.69-4.171z" fill="#47A8A5"/><path d="M19.7 50.2c.7 0 1.3.6 1.3 1.3v19.4c0 .7-.6 1.3-1.3 1.3h-3.4c-.7 0-1.3-.6-1.3-1.3V51.5c0-.7.6-1.3 1.3-1.3h3.4zm0-1h-3.4c-1.3 0-2.3 1-2.3 2.3v19.4c0 1.3 1 2.3 2.3 2.3h3.4c1.3 0 2.3-1 2.3-2.3V51.5c0-1.2-1-2.3-2.3-2.3z" fill="#000"/><path d="M21.1 69.1c.8.8 1.8 1.2 2.9 1.2l21.4-1.1c.6 0 1.1-.2 1.6-.5.1 0 .3 0 .4-.1l13.1-4.2c.8-.3 1.5-.8 2-1.6 2-3.1 4-6.2 5.9-9.3.8-1.1.9-4.7-1-5.3-2-.6-4.7 1.8-5.4 2.8-1.8 2.6-1.8 3.5-3.6 6.1-3.6.9-7.3 1.7-10.9 2.6" stroke="#000" stroke-miterlimit="10"/><path d="M34.6 59.8h13.3c1.2-.4 2.2-.7 2.7-1.5.2-.3.7-1 .5-1.8-.1-.7-.6-1.2-1.1-1.6-1.9-1.4-5.7-1.9-9.1-2.1-1-.1-2.4-.2-4.1-.2-2.7-.9-5-1.2-6.5-1.2-2.8-.1-5.1-.2-7.5 1.2l-1.4 1.2" stroke="#000" stroke-miterlimit="10"/><path d="M32.9 51.7c2.4-2.4 6.2-4 10.6-4 7.2 0 13 4.3 13 9.5m-11-9.5v-16" stroke="#000" stroke-miterlimit="10"/><path d="M56.16 27.444c3.39-4.29 4.1-9.378 1.588-11.364-2.514-1.987-7.3-.12-10.69 4.17-3.39 4.29-4.102 9.378-1.588 11.365 2.513 1.986 7.299.119 10.69-4.171zM46 30.8l4.4-5.5m-4.92 13.762c.08-3.202-4.287-5.907-9.753-6.042-5.466-.135-9.961 2.352-10.04 5.554-.08 3.203 4.288 5.908 9.754 6.043 5.466.134 9.961-2.352 10.04-5.555zm-1.08.038l-7-.1" stroke="#000" stroke-miterlimit="10" stroke-linecap="round" stroke-linejoin="round"/></svg>