<svg width="85" height="85" fill="none" xmlns="http://www.w3.org/2000/svg"><path d="M66.442 41.615c4.294 0 7.775-3.495 7.775-7.807S70.737 26 66.442 26c-4.293 0-7.774 3.496-7.774 7.808 0 4.312 3.48 7.807 7.774 7.807zM77 50.577c-.31-.843-.928-2.485-1.458-3.416-1.722-2.928-5.83-4.26-9.1-4.303-3.357-.045-7.553 1.375-9.276 4.303-.53.931-1.149 2.573-1.458 3.416" fill="#FFCA05"/><path d="M20.502 42.059c4.293 0 7.774-3.496 7.774-7.808 0-4.312-3.48-7.807-7.774-7.807-4.294 0-7.775 3.495-7.775 7.807s3.48 7.808 7.774 7.808zM31.06 51.02c-.31-.843-.929-2.484-1.459-3.416-1.723-2.928-5.83-4.258-9.1-4.303-3.357-.044-7.553 1.375-9.276 4.303-.53.932-1.149 2.573-1.458 3.416" fill="#F79C51"/><path d="M43.119 48.492c5.245 0 9.497-4.27 9.497-9.538 0-5.268-4.252-9.538-9.497-9.538-5.246 0-9.498 4.27-9.498 9.538 0 5.267 4.252 9.538 9.498 9.538zm13.296 10.957c-.353-1.065-1.149-3.017-1.811-4.17-2.076-3.55-7.157-5.235-11.088-5.235-4.108-.044-9.232 1.642-11.353 5.235-.662 1.153-1.413 3.15-1.81 4.17" fill="#4EADDD"/><path d="M41.352 30.303c4.991 0 9.055 4.082 9.055 9.094 0 5.013-4.064 9.095-9.055 9.095-4.992 0-9.056-4.082-9.056-9.095 0-5.012 4.064-9.094 9.056-9.094zm0-.443c-5.257 0-9.498 4.258-9.498 9.537 0 5.28 4.24 9.538 9.498 9.538 5.256 0 9.497-4.259 9.497-9.538s-4.24-9.537-9.497-9.537z" fill="#5B5B5B"/><path d="M54.648 59.892c-.353-1.064-1.148-3.016-1.81-4.17-2.077-3.549-7.157-5.234-11.089-5.234-4.108-.045-9.232 1.641-11.352 5.234-.663 1.154-1.414 3.15-1.812 4.17m.707-8.428c-.31-.843-.928-2.484-1.458-3.416-1.723-2.928-5.83-4.259-9.1-4.303-3.357-.044-7.554 1.375-9.276 4.303-.53.932-1.149 2.573-1.458 3.416m67.233 0c-.31-.843-.928-2.484-1.458-3.416-1.723-2.928-5.83-4.259-9.1-4.303-3.357-.044-7.553 1.375-9.276 4.303-.53.932-1.149 2.573-1.458 3.416" stroke="#5B5B5B" stroke-miterlimit="10" stroke-linecap="round"/><circle cx="41.5" cy="39.5" r="9" stroke="#5B5B5B"/><circle cx="64.5" cy="34.5" r="7" stroke="#5B5B5B"/><circle cx="18.5" cy="34.5" r="7" stroke="#5B5B5B"/></svg>