<svg width="743" height="576" fill="none" xmlns="http://www.w3.org/2000/svg"><path d="M705.122 160.376c-4.152-32.665-43.937-74.63-91.498-70.472-34.424 3.025-68.094 34.405-71.491 58.072-1.208 8.317-4.001 10.434-9.965 21.852-16.458 31.531-28.084 34.707-34.425 49.754-14.495 34.101 13.815 91.794 52.09 103.212 13.136 3.932 25.743 1.815 28.234 1.361 22.044-3.932 57.148-23.062 64.622-23.213 9.135-.151 8.682 1.21 14.721.453 25.366-3.251 43.333-26.389 40.087-51.644-.755-5.746-1.812-4.234-3.02-11.568-3.321-20.34 7.248-30.397 10.418-54.82 1.208-9.981.831-18.526.227-22.987z" fill="#F05B46" fill-opacity=".3"/><path d="M329.243 412.85c16.533-6.654 33.67-5.671 45.447 1.285 1.811-3.251 4.001-6.276 6.643-8.998-4.379-5.746-8.002-12.173-10.795-19.205-16.835-42.193 3.699-90.056 45.824-106.918 50.58-20.265 102.67 22.155 106.747 45.897.528 3.252 1.132 11.342 7.247 16.938 7.323 6.729 17.514 5.066 25.592 5.217 21.666.378 45.749 13.837 54.128 29.111 12.608 22.987-1.283 66.465-34.273 79.848-22.724 9.225-52.77 3.403-64.849-12.854-6.643-8.922-7.247-20.038-14.872-21.399-3.624-.68-5.662 1.437-18.873 10.133-16.91 11.115-16.005 9.3-21.516 13.837-11.927 9.83-10.795 14.064-19.93 19.508-8.908 5.369-17.74 5.974-23.78 6.352-18.496 1.285-23.629-5.974-36.916-2.571-9.814 2.495-10.116 7.259-19.024 11.266-18.647 8.393-50.807 3.025-58.281-15.803-7.398-18.601 6.644-41.739 31.481-51.644z" fill="#056FB7" fill-opacity=".25"/><path d="M646.645 112.565c11.256-4.306 16.896-16.937 12.597-28.212-4.299-11.274-16.91-16.923-28.166-12.617-11.257 4.306-16.897 16.937-12.598 28.211 4.3 11.275 16.91 16.924 28.167 12.618z" stroke="#F15D46" stroke-width="2" stroke-miterlimit="10" stroke-dasharray="3.95 3.95"/><path d="M352.495 513.265c10.465 0 18.948-8.497 18.948-18.979s-8.483-18.979-18.948-18.979-18.949 8.497-18.949 18.979 8.484 18.979 18.949 18.979z" stroke="#4EACDB" stroke-width="2" stroke-miterlimit="10" stroke-dasharray="3.94 3.94"/><path d="M673.339 226.538c14.646 0 26.574 30.321 26.574 67.674 0 37.353-11.853 67.674-26.574 67.674-14.645 0-26.573-30.321-26.573-67.674 0-37.428 11.928-67.674 26.573-67.674z" fill="#5B5B5B"/><path d="M572.632 428.275c-5.662-1.134-10.041-3.251-12.683-6.352 7.172-4.083 15.023-9.073 23.327-15.652 2.945-2.344 5.889-4.612 8.682-7.032 9.588-8.09 18.118-16.861 23.856-29.716.453-.983.83-1.966 1.208-2.949 30.121-9.754 56.921-8.015 61.904 4.84 5.435 13.988-17.364 35.84-50.807 48.846-2.416.907-4.831 1.815-7.247 2.646-18.722 6.05-36.237 7.864-48.24 5.369z" fill="#5B5B5B"/><path d="M606.679 67.145l.151-1.437c-.453-.076-.906-.076-1.51-.076s-2.717.076-3.019.908c-.076.227 0 .53.151.68.377.53 1.51.152 2.113.076.529-.151 1.208-.227 2.114-.151zm2.19-5.217v-.152s-.151-2.57 1.66-5.142c.831-1.058 4.303-4.536 4.303-7.863 0-5.142-4.152-9.376-9.361-9.376-5.133 0-9.361 4.234-9.361 9.376 0 3.327 3.473 6.805 4.303 7.864 1.888 2.646 1.661 5.141 1.661 5.141v.303c-.453.075-.906.15-.906.227 0 .15 1.435.15 2.794.15h.226a35.753 35.753 0 003.397-.377c.453-.076.906-.151 1.284-.151zM603.66.227c27.328 0 49.447 22.155 49.447 49.527S630.988 99.28 603.66 99.28c-12.23 0-23.403-4.462-32.009-11.796-.076-.076-.227-.151-.302-.227l-10.494 2.722 3.246-10.435c-3.095-4.158-5.586-8.77-7.322-13.761-1.661-4.99-2.643-10.36-2.643-15.955C554.212 22.382 576.331.227 603.66.227zm22.27 43.25c0-.755-.604-1.36-1.359-1.36s-1.359.605-1.359 1.36c0 .757.604 1.362 1.359 1.362s1.359-.605 1.359-1.361zm-19.477-13.232a1 1 0 00-.982-.983 1 1 0 00-.981.983 1 1 0 00.981.983c.604 0 .982-.453.982-.983zm-18.647 13.233c0-.756-.604-1.361-1.359-1.361s-1.359.605-1.359 1.36c0 .757.604 1.362 1.359 1.362s1.359-.605 1.359-1.361z" fill="#fff"/><path d="M472.83 344.873v-.302c.831-2.42 1.812-6.049 1.737-10.359-.076-5.974-1.963-10.737-3.624-13.837a85.558 85.558 0 00-1.359-2.269c-.075-.075-.151-.227-.226-.302-1.284-.681-5.058-2.874-10.418-5.823-7.474-4.234-11.098-6.654-15.325-10.283-2.416-2.117-2.794-2.949-2.794-2.949 1.057-1.134 2.19-2.495 3.322-3.932 1.963-2.495 4.001-5.444 6.04-8.771a76.594 76.594 0 006.039-12.854c.302-.908.604-1.739.906-2.571l.151-.303c8.153 3.932 19.477 7.411 29.291 2.874 2.34-1.059 8.908-11.645 22.044-32.665 0 0 2.189-3.479 4.379-8.545 1.056.832 2.34 1.815 3.925 2.647a31.61 31.61 0 004.53 2.041c.906-2.57 1.812-5.293 2.642-8.09.755-2.571 1.51-5.142 2.114-7.562 0 2.42.302 5.52 1.283 9.074.68 2.42 1.51 4.386 2.34 6.049a231.012 231.012 0 0012.457-16.786c4.982-7.486 8.983-14.669 12.305-21.172 17.665 17.921 56.62 59.13 65.15 118.411 2.19 14.971 4.379 31.909-2.717 49.98-.378.983-.831 1.966-1.208 2.949-4.605 1.815-11.551 4.235-20.157 5.898-23.78 4.537-43.182.076-60.545-4.083-2.34-.529-4.907-1.21-7.625-1.966v-7.486h31.707v-15.878H430.932v-.076c.83 0 1.736-.151 2.869-.227 2.34-.151 3.246.076 5.058.151 2.264.076 7.02-.227 17.665-1.89h.151c0 .227-.076.454-.076.68 5.511.227 10.947.303 16.231.227z" fill="#46A8A5"/><path d="M595.733 375.27c8.606-1.664 15.551-4.008 20.156-5.898-5.737 12.854-14.268 21.701-23.855 29.716-2.794 2.344-5.738 4.688-8.682 7.032-8.304 6.579-16.231 11.569-23.327 15.652-14.797 8.393-26.423 12.779-32.311 18.299h-.076v-70.926c2.718.756 5.285 1.437 7.625 1.966 17.288 4.235 36.69 8.696 60.47 4.159z" fill="#F15C46"/><path d="M607.434 60.718l.151 1.36c-.906.152-2.114.303-3.397.379h-.226l-.076-1.664c.378-.907.906-2.344 1.51-4.007.755 1.587 1.51 3.024 2.038 3.931z" fill="#FFCB05"/><path d="M606.83 65.632l-.151 1.437c-.906-.076-1.585 0-2.114.151-.528.152-1.66.454-2.113-.075a.725.725 0 01-.151-.68c.302-.833 2.415-.908 3.019-.908.604 0 1.057.075 1.51.075z" fill="#fff"/><path d="M606.604 47.863c.83 1.966-.151 5.747-1.133 8.847-1.359-3.024-2.642-6.73-1.661-8.771.227-.378.831-1.663 1.586-1.588.604.076.981 1.134 1.208 1.512z" fill="#FFCB05"/><path d="M584.107 534.436a9.294 9.294 0 010 2.042c-.906 10.737-3.095 18.525-13.74 28.431-5.133 4.839-18.269 10.964-21.666 7.561-.755-.756-1.057-1.966 1.208-10.813 3.472-13.383 6.19-17.467 5.737-24.574-.075-.983-.151-1.815-.302-2.647-.377-2.495-.981-4.31-1.51-5.595 4.001-.454 9.135-1.815 13.891-5.52 2.189-1.739 3.926-3.629 5.209-5.444l.075.076a127.484 127.484 0 014.907 5.519c3.096 3.63 3.624 4.84 4.077 5.445 1.208 1.587 1.887 3.478 2.114 5.519z" fill="#fff"/><path d="M577.162 508.955c-.302 1.209-1.057 3.478-2.492 6.124l-.302-.151c-19.703-16.03-34.122-31.228-43.936-42.797-.982-1.134-1.888-2.269-2.794-3.327v-10.435h.076c1.585 2.193 3.774 4.839 6.719 8.166.755.832 1.51 1.74 2.34 2.647 14.268 16.181 28.159 29.262 40.389 39.773z" fill="#F15C46"/><path d="M574.368 515.004l.302.151c-.453.832-1.057 1.739-1.66 2.646-1.359 1.891-3.02 3.781-5.21 5.445a26.76 26.76 0 01-13.89 5.519c-3.322.378-5.813.076-6.719 0a429.047 429.047 0 01-19.553-10.661v-49.3c.906 1.059 1.812 2.193 2.794 3.327 9.814 11.569 24.233 26.843 43.936 42.873zm-14.419-93.156c2.718 3.1 7.096 5.217 12.683 6.351-10.796 11.796-24.535 25.709-38.275 38.336-2.944-3.402-5.133-6.049-6.719-8.166h-.075v-18.223h.075c5.889-5.519 17.515-9.905 32.311-18.298z" fill="#F15C46"/><path d="M504.462 361.811H251.108v-15.879H559.27v15.879h-54.808zm50.958-257.389c13.739 36.144-11.626 73.723-15.703 79.546-3.548-3.1-6.794-5.747-9.361-7.864 1.132.227 3.02.378 5.058-.303 4.001-1.361 5.813-4.99 6.87-7.107.83-1.664 2.416-4.991 1.661-9.074-.227-1.21-.604-2.949-1.963-4.385-2.567-2.723-6.417-2.193-6.643-2.193a7.805 7.805 0 00-4.077 1.89l-.076-.076c-.453.152-4.227 1.286-7.7-1.134-3.246-2.268-3.699-5.746-3.699-6.276-3.624-.151-11.248-.983-19.024-5.897-10.494-6.73-14.495-16.56-15.627-19.811a39.617 39.617 0 01-4.303 10.283c-4.152 7.032-9.437 10.964-12.532 13.233-2.491 1.814-9.588 6.049-19.402 8.544a53.074 53.074 0 01-8.228 1.512c-9.966 1.134-20.988-2.419-20.988-2.419s5.813-2.193 8.531-7.033c3.322-5.822-1.887-11.644-3.397-21.171-2.34-14.972 6.19-27.675 7.7-29.868 1.51-2.192 11.777-17.088 28.461-19.054 14.419-1.74 19.175 7.94 31.103 3.554 6.417-2.344 8.606-6.428 18.269-8.847 5.285-1.286 9.89-1.361 12.004-1.286 15.702 1.059 28.536 23.138 33.066 35.236z" fill="#232020"/><path d="M553.834 197.276l.831.831c-3.322 6.579-7.323 13.762-12.306 21.172a193.645 193.645 0 01-12.456 16.786 36.187 36.187 0 01-2.34-6.049c-.982-3.553-1.284-6.654-1.284-9.073 3.247-4.31 6.644-9.225 9.89-14.821a182.972 182.972 0 008.984-17.239c2.793 2.495 5.662 5.293 8.681 8.393zm-42.653-.908c-2.265 1.512-4.681 2.798-7.323 3.781-2.265.832-8.682 3.251-16.609 2.041-15.929-2.419-24.837-17.315-29.442-24.801-5.511-9.073-7.775-17.693-8.832-23.213l-.076-.303c9.814-2.495 16.835-6.729 19.402-8.544 3.095-2.268 8.379-6.125 12.532-13.232 2.34-4.008 3.623-7.713 4.303-10.284 1.132 3.252 5.133 13.157 15.627 19.811 7.775 4.915 15.325 5.747 19.024 5.898.075.529.528 4.083 3.699 6.276 3.473 2.419 7.323 1.285 7.7 1.134l.076.076c1.208-.983 2.567-1.664 4.076-1.891.227 0 4.077-.529 6.644 2.193 1.434 1.437 1.736 3.176 1.963 4.386.755 4.083-.831 7.41-1.661 9.073-1.057 2.117-2.869 5.747-6.87 7.108-2.038.68-3.926.529-5.058.302 0-.075-7.398 12.552-19.175 20.189z" fill="#fff"/><path d="M539.717 183.968c1.736 1.512 3.548 3.175 5.435 4.914a182.72 182.72 0 01-8.983 17.24c-3.322 5.596-6.644 10.511-9.89 14.821-1.057-.076-2.793-.378-4.756-1.513-2.038-1.21-3.321-2.722-3.85-3.554.076-.983.151-1.663.151-2.117.151-7.712-3.699-13.761-6.643-17.391 11.777-7.637 19.175-20.264 19.175-20.264a290.048 290.048 0 019.361 7.864z" fill="#fff"/><path d="M527.563 534.437v28.581H514.88V361.811h12.683v172.626z" fill="#232020"/><path d="M527.563 361.811H514.88v3.478h-.076c-2.944-1.059-6.039-2.193-9.285-3.478h22.044z" fill="#DD6054"/><path d="M526.279 220.943c-.604 2.419-1.359 4.99-2.113 7.561a170.312 170.312 0 01-2.643 8.091c-1.359-.454-2.868-1.059-4.529-2.042a31.863 31.863 0 01-3.926-2.646c1.963-4.461 4.001-10.284 4.681-16.03.604.831 1.811 2.344 3.85 3.554a10.855 10.855 0 004.68 1.512z" fill="#fff"/><path d="M456.071 454.211c-3.246-7.108-4.379-13.913-3.095-20.114 2.114-9.829 11.022-21.928 24.384-39.999a345.803 345.803 0 0127.026-32.287h1.057c3.171 1.285 6.342 2.419 9.286 3.478h.075v68.128c-1.132 1.588-1.962 3.402-2.34 5.368-.679 3.101-.528 6.503 2.34 12.023h.076v59.583c-6.266-3.932-12.154-8.015-17.59-12.022-20.156-14.972-34.802-30.17-41.219-44.158z" fill="#F15C46"/><path d="M514.88 433.341v17.391h-.076c-2.793-5.52-3.019-8.922-2.34-12.022.453-1.966 1.283-3.705 2.416-5.369zm-17.665 64.952l-.076.151c-17.741 13.913-34.953 25.86-50.882 35.917-1.812 1.134-3.624 2.268-5.36 3.402-1.057-.226-4.681-1.134-8.757-3.327-4.454-2.344-9.512-6.276-12.834-12.627-.679-1.361-1.283-2.647-1.661-3.932a30.73 30.73 0 01-1.585-9.679 146.46 146.46 0 0025.592-27.977 143.78 143.78 0 0014.495-26.011c6.341 13.989 20.987 29.187 41.068 44.083z" fill="#F15C46"/><path d="M474.567 334.212c.075 4.385-.906 7.939-1.737 10.359v.302c-5.284.076-10.644 0-16.155-.378 0-.227.075-.453.075-.68.227-2.042.378-4.462.227-7.108-.227-4.461-1.284-8.242-2.265-11.115h.227l16.004-5.217c1.661 3.1 3.548 7.863 3.624 13.837z" fill="#fff"/><path d="M470.943 320.374l-16.004 5.218h-.227c-.226-.681-.453-1.21-.679-1.815l1.057-.227c4.227-1.437 9.134-3.176 14.57-5.444.302.605.755 1.361 1.283 2.268zm-13.664-50.131l-.151.302c-.302.832-.529 1.664-.906 2.571l-10.267-6.881h-.151c.226-.831.453-1.663.604-2.419 1.283.831 5.36 3.78 10.871 6.427z" fill="#A3CDCB"/><path d="M456.977 336.707c.151 2.646 0 5.066-.227 7.108h-.151c-10.644 1.739-15.4 1.966-17.665 1.89-1.812-.076-2.718-.302-5.058-.151-1.132.075-2.038.227-2.869.227-.679 0-1.283-.076-2.038-.378-.302-.076-2.34-.832-2.34-1.966 0-.605.604-1.059.981-1.21 0 0-.604-.454-.83-1.059-.302-.605 0-1.21.075-1.512.604-1.664 2.265-1.89 3.926-3.705 1.057-1.134.755-1.512 1.812-3.176a12.831 12.831 0 014.152-3.856c.906-.605 2.868-1.739 10.267-2.647 1.963-.227 4.605-.529 7.776-.68.905 2.873 1.887 6.654 2.189 11.115zm-10.947-70.472l10.267 6.881c-1.358 3.781-3.321 8.166-6.039 12.854-1.963 3.327-4.001 6.276-6.039 8.772l-.302-.227c-2.039-.832-3.549-1.815-4.53-2.571-.755-.605-1.283-.983-5.058-4.991 1.132-1.209 2.34-2.722 3.548-4.461.151-.227.378-.454.529-.756 1.057-1.512 2.113-3.251 3.17-5.142 1.359-2.495 2.416-4.915 3.171-7.183.377-1.134.755-2.193 1.057-3.251l.226.075z" fill="#fff"/><path d="M418.023 262.303a10.595 10.595 0 00-1.208-2.495c-.151-.227-.378-.454-.529-.605-1.736-1.89-3.774-2.798-6.643-4.839-.378-.303-.227-.151-.679-.454-1.888-1.361-2.341-1.89-2.567-2.268-.076-.076-.076-.151-.076-.151-.377-.681-.151-1.588.302-2.118.302-.302.831-.529 1.737-.529 2.717.076 5.662 2.344 6.718 3.176 1.435 1.058 3.7 2.798 6.719 4.915-1.812-2.571-3.623-4.31-4.982-5.444-3.322-2.722-6.04-3.554-6.493-6.125 0-.151-.302-1.815.604-2.571 1.133-.907 3.548.302 5.36 1.285 2.869 1.513 4.681 3.176 7.55 5.747 5.661 4.991 3.321 2.798 5.209 4.613 6.416 6.049 13.135 12.4 15.702 14.82l.227.075c-.755 2.193-1.812 4.613-3.171 7.184-1.057 1.89-2.114 3.629-3.171 5.141-1.585-.302-3.775-.756-6.341-1.588-2.869-.983-7.172-2.419-11.551-5.746a35.445 35.445 0 01-6.492-6.579c-1.132-1.739-2.265-2.797-3.171-3.478-1.208-.831-2.491-1.436-3.321-2.949-.227-.378-.755-1.285-.378-1.89.151-.227.378-.302.453-.378.453-.151.906 0 1.359.227.377.227.83.529 1.359.832 1.132.68 2.038 1.209 2.793 1.663-.906-.605-.83-.454-3.246-2.042-.302-.151-.604-.378-.906-.529-1.434-.907-2.114-1.436-2.416-2.344-.075-.227-.528-1.512.151-2.193.453-.453 1.208-.453 1.661-.378 1.208.076 1.51.53 4.303 2.269 1.057.68 2.038 1.209 3.171 2.268l.453.454c.755 1.134 1.208 2.268 1.51 3.024zm-4.832-.378c.076 0 .076.076.151.076 1.585 1.134 1.812 1.437 2.038 1.89.453.983.151 2.117.151 2.117s.227-.756.076-1.436c-.151-1.059-.906-1.664-2.416-2.647zm18.873 272.511a61.836 61.836 0 01-11.777 8.242c-5.435 2.949-8.379 4.537-12.229 4.84-5.587.302-10.72-3.63-20.837-11.569-.679-.53-1.283-1.059-1.887-1.513-10.418-8.468-12.154-12.476-12.003-15.576 0-.681.075-3.251 1.736-4.234 1.661-1.059 4.001.075 5.964.907 0 0 .831.378 12.683 4.234 6.115 2.042 11.701 3.857 17.514 1.966 3.02-.983 5.134-2.646 6.417-3.78.453 1.285.981 2.646 1.661 3.932 3.246 6.276 8.304 10.207 12.758 12.551zM315.956 295.422l-1.283-4.839c-.302-1.21.604-2.42 1.887-2.42h88.478c.83 0 1.661.605 1.887 1.437l14.721 56.105h-92.478l-13.212-50.283z" fill="#fff"/><path d="M279.871 315.459h18.344c.755 0 1.284.605 1.284 1.286v29.111h-26.423v-29.111c0-.605.453-1.134 1.057-1.286h5.738z" fill="#E69188"/><path d="M295.875 534.437h-12.758v28.657h12.758v-28.657zm0-172.626h-12.758v172.625h12.758V361.811z" fill="#232020"/><path opacity=".24" d="M316.409 280.677c-15.476 10.586-33.594 17.165-52.543 18.375-56.695 3.705-111.125-41.361-114.749-102.079-3.699-62.986 48.844-117.503 110.295-115.915 61.829 1.588 110.522 59.508 104.558 120.528-2.869 29.338-17.968 55.273-39.483 72.967" fill="#DADCEB"/><path d="M446.634 155.235c1.057 5.595 3.247 14.139 8.833 23.213 4.605 7.486 13.513 22.382 29.442 24.801 7.927 1.21 14.344-1.134 16.609-2.041 15.929-6.049 26.498-23.97 26.498-23.97 1.132.227 3.019.378 5.058-.302 4.001-1.361 5.813-4.991 6.87-7.108.83-1.663 2.415-4.99 1.66-9.074-.226-1.209-.604-2.949-1.962-4.385-2.567-2.722-6.417-2.193-6.644-2.193-3.623.529-6.719 3.781-7.549 8.166" stroke="#5C5C5C" stroke-width="2" stroke-miterlimit="10" stroke-linecap="round"/><path d="M503.707 177.011c-1.208 1.664-4.228 5.369-9.588 7.486-4.378 1.815-8.304 1.739-10.342 1.588" stroke="#5C5C5C" stroke-width="2" stroke-miterlimit="10" stroke-linecap="round"/><path d="M495.78 162.872c.453.907.378 2.041-.226 2.948-.68.908-1.568.926-2.399.851-1.359-.076-2.536-1.402-2.536-3.065 0-1.664.934-2.247 2.368-2.322 1.057-.152 2.265.453 2.793 1.588zm-29.666 5.422c0 1.437-.833 3.122-2.116 3.273-1.359.151-2.869-.681-3.171-1.89-.378-1.588.757-4.18 2.645-4.029 1.283.075 2.642 1.21 2.642 2.646z" fill="#5C5C5C"/><path d="M472.981 164.686c.378 1.059 1.586 4.991-.226 9.15-.906 2.041-2.189 3.478-3.095 4.234a12.391 12.391 0 003.246 1.815c1.434.529 2.642.68 3.548.756" stroke="#5C5C5C" stroke-width="2" stroke-miterlimit="10" stroke-linecap="round" stroke-linejoin="round"/><path d="M528.846 156.066c-.453.152-4.228 1.286-7.7-1.134-3.247-2.268-3.699-5.746-3.699-6.276-3.624-.151-11.249-.983-19.025-5.898-10.493-6.729-14.494-16.559-15.627-19.81-.679 2.646-1.962 6.351-4.303 10.283-4.152 7.032-9.436 10.964-12.532 13.232-3.17 2.344-13.588 8.469-27.554 10.133-9.965 1.134-20.987-2.42-20.987-2.42s5.813-2.193 8.53-7.032c3.322-5.822-1.887-11.644-3.397-21.172-2.34-14.971 6.19-27.674 7.7-29.867 1.51-2.193 11.777-17.089 28.386-19.055 14.419-1.739 19.175 7.94 31.103 3.554 6.417-2.344 8.606-6.427 18.269-8.847 5.284-1.285 9.889-1.436 12.003-1.285 15.627.983 28.461 23.138 33.066 35.16 13.815 36.37-11.928 74.177-15.778 79.697M512.54 511.526c-40.842-26.012-66.51-54.367-61.829-76.295 2.114-9.829 11.022-21.927 24.384-39.999a325.652 325.652 0 0127.178-32.363m23.025 96.71c2.038 2.722 4.907 6.2 9.134 10.888a426.204 426.204 0 0040.465 39.773c-.68 2.42-2.869 9.149-9.437 14.291-8.757 6.881-18.647 5.747-20.61 5.52a428.03 428.03 0 01-19.552-10.662" stroke="#5C5C5C" stroke-width="2" stroke-miterlimit="10" stroke-linecap="round" stroke-linejoin="round"/><path d="M528.015 177.314a279.786 279.786 0 0123.479 21.172c17.288 17.466 57.299 58.978 65.981 119.166 2.189 14.972 4.378 31.909-2.718 49.981-.378.983-.831 1.966-1.208 2.949-5.737 12.854-14.268 21.701-23.856 29.716-2.793 2.344-5.737 4.688-8.682 7.032-8.304 6.578-16.23 11.569-23.327 15.652-14.796 8.393-26.422 12.779-32.311 18.374m-70.51-169.601c-1.434 4.31-3.548 9.679-6.945 15.425-3.096 5.293-6.417 9.528-9.361 12.703 0 0 .377.908 2.793 2.949 4.227 3.63 7.775 6.049 15.325 10.284 5.284 3.024 9.134 5.141 10.418 5.822" stroke="#5C5C5C" stroke-width="2" stroke-miterlimit="10" stroke-linecap="round" stroke-linejoin="round"/><path d="M441.652 295.649c-2.039-.832-3.548-1.815-4.53-2.571-.83-.605-1.283-.983-5.058-4.99 2.189-2.496 4.832-5.898 7.247-10.359 2.643-4.84 4.077-9.376 4.907-12.779 2.945 2.117 23.63 16.937 40.087 9.376 2.341-1.059 8.984-11.644 22.044-32.665 0 0 7.625-12.249 9.059-24.574.076-.983.151-1.588.151-2.118.151-7.788-3.774-13.837-6.719-17.466m16.156 64.649c-3.473 16.257-10.871 26.087-15.401 31.153-7.096 7.864-14.419 11.796-25.818 17.996-12.003 6.503-22.799 10.737-31.103 13.459l-1.057.227a38.754 38.754 0 013.02 12.93c.151 2.949 0 5.595-.302 7.788 69.302 4.386 122.298-27.448 130.829-66.842 1.585-7.184 3.925-25.406-10.116-50.435" stroke="#5C5C5C" stroke-width="2" stroke-miterlimit="10" stroke-linecap="round" stroke-linejoin="round"/><path d="M513.219 263.438c-.453 5.973-1.284 12.627-2.869 19.961-.981 4.537-2.189 8.772-3.397 12.628m18.194 74.404c2.718.756 5.284 1.436 7.7 1.966 17.364 4.158 36.765 8.62 60.545 4.083 8.607-1.664 15.552-4.008 20.157-5.898m-110.824-7.788a173.888 173.888 0 009.664 3.629m19.703 101.322c13.74-12.703 27.555-26.616 38.351-38.412m-116.637 26.012c-3.322 7.637-7.927 16.635-14.57 26.086-8.757 12.477-18.043 21.626-25.592 27.977 0 3.176.528 8.242 3.322 13.611 6.416 12.249 19.401 15.425 21.59 15.954 17.515-10.812 36.539-23.818 56.318-39.319m20.459-282.567c.604.831 1.812 2.419 3.85 3.553 1.963 1.135 3.699 1.437 4.756 1.513a157.603 157.603 0 009.89-14.821 183.07 183.07 0 008.983-17.239m-18.873 32.06c0 2.419.302 5.519 1.283 9.073.68 2.42 1.51 4.386 2.341 6.049 4.076-4.915 8.228-10.51 12.456-16.786 4.982-7.486 9.059-14.669 12.305-21.247m-28.385 22.911c-.604 2.419-1.359 4.99-2.114 7.561-.83 2.798-1.736 5.52-2.642 8.091-1.283-.454-2.869-1.059-4.605-2.042-1.661-.907-2.944-1.89-4.001-2.798m-43.484 85.973c1.736 2.571 5.058 8.393 5.133 16.408.076 4.386-.83 7.94-1.736 10.359m-17.892-18.903l16.231-5.293m-25.139-54.064l10.418 6.956m-17.967 8.469c-1.585-.302-3.775-.756-6.342-1.588-2.868-.983-7.171-2.419-11.55-5.746a35.476 35.476 0 01-6.492-6.579c-1.133-1.739-2.265-2.798-3.171-3.478-1.208-.907-2.491-1.437-3.322-2.949-.226-.378-.755-1.285-.377-1.815.151-.227.377-.302.528-.378.68-.227 1.435.227 2.265.756 2.642 1.588 2.34 1.361 3.473 2.118 1.585 1.134 1.812 1.436 2.038 1.89.453.983.151 2.117.151 2.117s.227-.756.076-1.437c-.302-1.436-1.737-2.192-5.285-4.31-2.491-1.512-3.322-2.041-3.775-3.175-.075-.227-.528-1.513.151-2.193.453-.454 1.208-.454 1.661-.378 1.208.075 1.51.529 4.303 2.193 1.057.68 2.039 1.209 3.171 2.268l.453.454c1.057 1.21 1.51 2.495 1.736 3.327-.151-.756-.528-1.815-1.359-2.874-.151-.226-.302-.453-.528-.605-1.736-1.89-3.775-2.797-6.643-4.839-.378-.302-.227-.151-.68-.453-1.887-1.362-2.34-1.891-2.567-2.193-.075-.076-.075-.152-.075-.152-.378-.68-.151-1.587.302-2.117.302-.302.83-.529 1.736-.529 2.718.076 5.662 2.344 6.719 3.176 1.434 1.134 3.699 2.798 6.719 4.99-1.812-2.571-3.624-4.31-4.983-5.444-3.321-2.722-6.039-3.554-6.492-6.125 0-.226-.302-1.814.604-2.57 1.132-.908 3.548.302 5.36 1.285 2.869 1.512 4.681 3.176 7.549 5.747 5.662 4.99 3.322 2.797 5.209 4.612 6.493 6.049 13.136 12.401 15.703 14.82" stroke="#5C5C5C" stroke-width="2" stroke-miterlimit="10" stroke-linecap="round" stroke-linejoin="round"/><path d="M428.441 262.681c-.68-.378-1.812-1.058-3.171-1.89-3.246-1.966-4.228-2.722-5.209-2.344-.831.302-1.586 1.361-1.586 2.344.076 2.344 4.455 2.798 5.813 6.503.076.227.227.832.604 1.966.453 1.512.831 2.797 1.057 3.629m28.235 72.136c-10.645 1.739-15.401 1.966-17.666 1.89-1.812-.076-2.718-.303-5.058-.151-2.038.151-3.246.453-4.831-.152-.302-.151-2.341-.831-2.341-1.965 0-.605.604-1.059.982-1.21 0 0-.604-.454-.831-1.059-.302-.605-.075-1.21.076-1.512.604-1.739 2.265-1.891 3.925-3.705 1.057-1.134.68-1.512 1.812-3.176 1.435-2.193 3.246-3.327 4.077-3.932.906-.605 2.869-1.739 10.267-2.646 2.038-.227 4.756-.53 8.078-.681" stroke="#5C5C5C" stroke-width="2" stroke-miterlimit="10" stroke-linecap="round" stroke-linejoin="round"/><path d="M311.955 284.458c-15.778 10.435-34.274 17.013-53.675 18.223-57.903 3.629-113.542-40.983-117.165-101.171-3.775-62.457 49.901-116.445 112.635-114.857 63.188 1.588 112.862 58.979 106.823 119.469-2.945 29.112-18.345 54.745-40.389 72.363l-8.229 5.973z" stroke="#DADCEC" stroke-width="2" stroke-miterlimit="10" stroke-linecap="round" stroke-linejoin="round"/><path d="M419.306 346.991h-92.479l-14.494-55.123c-.302-1.209.603-2.419 1.887-2.419h88.477a1.95 1.95 0 011.888 1.436l14.721 56.106zm-170.538.075h308.01m-259.544 0h-26.423v-29.111c0-.756.604-1.286 1.284-1.286h23.78c.755 0 1.284.605 1.284 1.286v29.111h.075zm-19.628-30.548v6.73" stroke="#5C5C5C" stroke-width="2" stroke-miterlimit="10" stroke-linecap="round" stroke-linejoin="round"/><path d="M281.682 323.248h-8.153v8.62h8.153v-8.62zm120.713-29.868l13.816 51.342m109.011 125.292c.906 1.058 1.812 2.192 2.869 3.402a333.947 333.947 0 0043.937 42.798M512.615 434.4a14.642 14.642 0 00-2.491 5.52c-.68 3.024-.529 6.502 2.34 12.022m84.024-71.984c-22.12 18.298-41.672 29.867-55.79 37.126-5.813 3.025-11.022 5.444-15.4 7.788m31.631-77.806H248.768v15.879h308.161v-15.879zm-263.47 15.879h-12.683v201.283h12.683V362.945z" stroke="#5C5C5C" stroke-width="2" stroke-miterlimit="10" stroke-linecap="round" stroke-linejoin="round"/><path d="M525.222 362.945H512.54v201.283h12.682V362.945zm26.272 167.106c.679 1.663 1.585 4.31 1.812 8.242.453 7.032-2.19 11.115-5.738 24.499-2.34 8.846-1.962 10.132-1.208 10.812 3.398 3.403 16.458-2.722 21.667-7.561 10.644-9.905 12.834-17.618 13.739-28.431a11.238 11.238 0 00-2.113-7.561c-.378-.529-.982-1.739-4.077-5.444a128.298 128.298 0 00-4.907-5.52m-155.44 0c-1.283 1.134-3.397 2.798-6.417 3.781-5.813 1.89-11.324.075-17.514-1.966-11.852-3.857-12.683-4.235-12.683-4.235-1.887-.831-4.303-1.966-5.964-.907-1.585.983-1.661 3.554-1.736 4.234-.151 3.327 1.812 7.637 13.891 17.165 10.116 7.939 15.249 11.946 20.836 11.568 3.85-.226 6.794-1.814 12.229-4.839 5.285-2.873 9.135-5.973 11.777-8.242m152.194-.075h159.667m-216.287 0h27.782m-109.087 0h68.547m-218.929 0h89.459m-150.759 0h48.391m-279.249 0H167.01m22.118 21.399c5.738.226 10.494.68 15.703-.227 1.057-.227 2.868-.605 4.303-2.042 1.434-1.437 1.887-3.403 1.887-4.537 0-3.554-4.605-7.486-11.475-8.847m-13.438-86.653c-7.775 26.389-13.211 48.166-16.834 64.196 0 0-3.624 15.728-1.888 26.313" stroke="#5C5C5C" stroke-width="2" stroke-miterlimit="10" stroke-linecap="round" stroke-linejoin="round"/><path d="M220.005 483.019c-.982 9.603-.378 17.24.377 22.457.755 5.142 5.738 35.085 6.342 43.251.075.756.226 2.647-.831 4.537-1.434 2.647-4.378 3.705-5.36 3.932-6.719 1.21-16.91-24.726-18.495-28.809" stroke="#5C5C5C" stroke-width="2" stroke-miterlimit="10" stroke-linecap="round" stroke-linejoin="round"/><path d="M225.667 553.793c.528.303 2.944 1.437 4.227 1.513 2.039.075 4.379-.757 5.36-2.496.831-1.361.529-2.949.453-3.553-5.133-20.794-7.549-28.129-10.795-43.327-1.208-6.352-3.397-16.711-3.926-27.296" stroke="#5C5C5C" stroke-width="2" stroke-miterlimit="10" stroke-linecap="round" stroke-linejoin="round"/><path d="M183.768 462.906a47.663 47.663 0 0016.307 14.593c8.908 4.84 17.137 5.747 21.364 5.898m-32.764-49.224a27.979 27.979 0 01-7.096.907c-4.379.076-6.115-.907-6.945.152-1.661 1.89 2.415 7.939 4.454 10.888 2.566 3.781 5.133 6.654 7.096 8.544 1.434 1.891 3.699 4.764 6.87 7.788 20.081 19.66 45.296 19.433 52.241 19.357 9.437-.075 13.74-1.89 16.155-5.066 3.247-4.234 2.19-9.829 2.114-10.056-.981-4.764-4.454-7.713-5.888-8.847-17.439-14.669-16.458-23.969-31.858-30.321-13.966-5.747-25.668-2.647-28.763-.907-3.624 1.966-6.19 4.839-6.19 4.839-.982 1.058-1.737 2.041-2.19 2.722z" stroke="#5C5C5C" stroke-width="2" stroke-miterlimit="10" stroke-linecap="round" stroke-linejoin="round"/><path d="M209.587 424.343a88.52 88.52 0 001.434-5.52c.302-1.209.302-1.588.68-1.89 1.585-1.059 5.888 2.344 8.153 4.764a21.157 21.157 0 013.699 5.217m-43.635 13.459c2.416.605 4.228 1.513 5.36 2.193 1.51.907 2.038 1.437 2.34 2.042.453.831.529 1.436.68 3.1.075.983.302 2.495.528 4.385" stroke="#5C5C5C" stroke-width="2" stroke-miterlimit="10" stroke-linecap="round" stroke-linejoin="round"/><path d="M226.95 448.993c.151.681 0 1.739-.755 2.268-.981.757-2.34.303-3.02 0-.679-.226-1.811-.68-2.113-1.663-.529-1.588 1.509-3.856 3.095-3.705.83.076 1.51.907 2.038 1.588.378.529.68.907.755 1.512zm16.533-4.915c0 .303.075.908-.302 1.588-.076.152-.679 1.286-1.736 1.361-1.284.076-2.039-1.436-2.114-1.588-.076-.075-.755-1.663.075-2.948.076-.076.906-1.286 1.963-1.135 1.359 0 2.038 1.664 2.114 2.722zm22.723 27.599c.151 1.21.453 3.705-1.056 5.747-.906 1.21-2.794 1.815-6.568 3.024-4.379 1.437-5.209 1.21-5.813.756-.604-.453-.831-1.436-1.208-3.327-.529-2.268-.755-3.478-.453-4.914.377-1.588 1.208-2.722 1.963-3.781.453-.605.83-1.134 1.434-1.664 1.661-1.512 3.473-1.89 4.077-2.041 1.057-.227 3.095-.605 4.907.529 2.189 1.512 2.491 4.31 2.717 5.671z" fill="#5C5C5C"/><path d="M166.933 536.705c-3.321 2.193-13.815 9.376-12.532 15.501 1.963 9.3 29.141 7.637 31.33 7.41.377 0 1.359-.151 2.189-.832 1.737-1.437 2.114-4.764.831-6.427-.831-1.134-2.19-1.286-5.436-1.512-9.436-.681-12.154-.53-14.117-2.42-.604-.605-1.434-1.664-1.812-3.781" stroke="#5C5C5C" stroke-width="2" stroke-miterlimit="10" stroke-linecap="round"/><path d="M670.999 363.021c14.676 0 26.574-30.299 26.574-67.675 0-37.375-11.898-67.674-26.574-67.674-14.676 0-26.573 30.299-26.573 67.674 0 37.376 11.897 67.675 26.573 67.675z" stroke="#5C5C5C" stroke-width="2" stroke-miterlimit="10" stroke-linecap="round" stroke-linejoin="round"/><path d="M614.757 367.633c30.197-9.754 56.997-8.015 61.904 4.764 5.436 13.988-17.363 35.84-50.807 48.846-30.348 11.796-59.111 12.249-68.245 1.815m61.073 1.058v133.08m-33.367-.454c0-23.289 14.947-34.555 33.367-34.555 18.421 0 33.368 11.342 33.368 34.555" stroke="#5C5C5C" stroke-width="2" stroke-miterlimit="10" stroke-linecap="round" stroke-linejoin="round"/><path d="M589.769 560.296c.075 2.042-2.265 4.235-4.379 4.008-.981-.076-1.736-.756-2.567-1.437-.83-.68-1.585-1.361-1.811-2.571 0-.151-.302-1.663.679-2.797 1.208-1.513 3.246-1.21 3.699-1.21 1.736.227 2.793 1.361 3.171 1.739.528.454 1.208 1.21 1.208 2.268zm24.459 0c-.075 2.042 2.265 4.235 4.379 4.008.981-.076 1.736-.756 2.567-1.437.83-.68 1.585-1.361 1.811-2.571 0-.151.302-1.663-.679-2.797-1.208-1.513-3.246-1.21-3.699-1.21-1.736.227-2.793 1.361-3.171 1.739-.453.454-1.132 1.21-1.208 2.268zm41.974 0c.076 2.042-2.264 4.235-4.378 4.008-.982-.076-1.737-.756-2.567-1.437-.83-.68-1.585-1.361-1.812-2.571 0-.151-.302-1.663.68-2.797 1.208-1.513 3.246-1.21 3.699-1.21 1.736.227 2.793 1.361 3.17 1.739.529.454 1.208 1.21 1.208 2.268z" fill="#000" stroke="#5C5C5C" stroke-width="2" stroke-miterlimit="10"/><path d="M569.008 88.392l-10.493 2.722 3.246-10.434c-6.191-8.318-9.89-18.601-9.89-29.792 0-27.372 22.12-49.527 49.448-49.527s49.448 22.155 49.448 49.527-22.12 49.527-49.448 49.527c-12.23 0-23.403-4.461-32.009-11.796-.075 0-.151-.076-.302-.227z" stroke="#DADCEC" stroke-width="2" stroke-miterlimit="10" stroke-linecap="round" stroke-linejoin="round"/><path d="M620.837 45.392a1.15 1.15 0 011.153 1.155 1.15 1.15 0 01-1.153 1.156 1.15 1.15 0 01-1.154-1.156c-.064-.641.513-1.155 1.154-1.155zm-8.267 5.585c0 2.824-2.948 5.777-3.653 6.676-1.602 2.246-1.41 4.364-1.41 4.364v.129c-.321 0-.705.064-1.09.128l-.128-1.155c-.384-.706-1.089-1.926-1.73-3.338.897-2.632 1.666-5.841.961-7.51-.128-.321-.513-1.22-1.025-1.284-.641-.064-1.154 1.027-1.346 1.348-.833 1.669.192 4.878 1.41 7.446-.449 1.412-.962 2.632-1.282 3.402l.064 1.412c-1.154.064-2.371 0-2.371-.128 0-.064.448-.129.769-.193v-.257s.128-2.182-1.41-4.364c-.705-.9-3.653-3.852-3.653-6.676 0-4.365 3.525-7.96 7.947-7.96 4.422.064 7.947 3.595 7.947 7.96zm-7.947-16.497a.85.85 0 01.833.834.85.85 0 01-.833.835.849.849 0 01-.833-.835c0-.45.384-.834.833-.834zm-16.15 10.912c.64 0 1.153.514 1.153 1.155a1.15 1.15 0 01-1.153 1.156 1.15 1.15 0 01-1.154-1.156 1.15 1.15 0 011.154-1.155z" fill="#FFCB05"/><path d="M605.52 63.108s-.128-2.182 1.41-4.429c.705-.898 3.653-3.851 3.653-6.675 0-4.365-3.525-7.96-7.947-7.96a7.952 7.952 0 00-7.947 7.96c0 2.824 2.948 5.777 3.653 6.675 1.602 2.247 1.41 4.43 1.41 4.43m.064.192c-.385.064-.769.129-.769.193 0 .128 1.346.192 2.564.128 2.755-.128 4.678-.834 5.383-.128.064.064.128.128.128.257-.064.449-1.666.577-2.243.577-2.435.193-3.909 0-3.909 0-.257 0-1.09-.128-1.603.321-.064.064-.256.257-.256.45 0 .192.192.32.256.385.898.578 4.23-.321 4.23-.321 1.346-.385 2.051-.642 2.5-.257.192.193.384.513.256.77-.064.257-.449.45-.833.578-1.09.321-1.666 0-2.948.064-.513 0-2.307.064-2.564.77-.064.193 0 .45.128.578.321.45 1.282.129 1.795.064.897-.192 2.243-.256 4.166.45" stroke="#5C5C5C" stroke-width="1.5" stroke-miterlimit="10" stroke-linecap="round" stroke-linejoin="round"/><path d="M604.302 62.146c-1.153-2.054-4.422-8.153-3.076-10.784.192-.386.705-1.413 1.346-1.348.577.064.897.898 1.025 1.283 1.026 2.568-1.346 8.795-2.243 10.913m1.346-23.943v3.594m0-4.686a.834.834 0 10-.002-1.667.834.834 0 00.002 1.667zm9.613 12.903l4.038-1.348m2.499 0a1.155 1.155 0 000-2.311c-.637 0-1.153.517-1.153 1.155 0 .639.516 1.156 1.153 1.156zm-25.827 1.348l-4.038-1.348m-2.499 0c.637 0 1.153-.517 1.153-1.156a1.154 1.154 0 10-2.307 0c0 .639.517 1.156 1.154 1.156z" stroke="#5C5C5C" stroke-width="1.5" stroke-miterlimit="10" stroke-linecap="round" stroke-linejoin="round"/><path d="M240.992 193.873c.075.303.075.681.151 1.513 0 .604 0 .68-.076.831-.151.454-.528.983-.981.983-.604 0-1.133-1.21-1.133-2.117-.075-1.285.604-2.571 1.133-2.571.528 0 .906 1.21.906 1.361zm18.42 0c.076.303.076.681.151 1.513 0 .604 0 .68-.075.831-.151.454-.529.983-.982.983-.604 0-1.132-1.21-1.132-2.117-.076-1.285.604-2.571 1.132-2.571.529 0 .906 1.21.906 1.361z" fill="#C3C8E1" stroke="#C3C8E1" stroke-width=".5" stroke-miterlimit="10"/><path d="M249.447 190.622c-.302 1.436-.679 4.083.227 7.259.604 2.419 1.736 4.234 2.491 5.293m-4.832 5.519c.604.303 2.19 1.059 4.228.832 1.812-.151 3.02-.983 3.624-1.361" stroke="#C3C8E1" stroke-width="2" stroke-miterlimit="10" stroke-linecap="round" stroke-linejoin="round"/><path d="M219.929 182.229c1.661.983 10.72 5.973 21.818 2.873 12.909-3.554 17.967-15.047 18.571-16.484 0 .832 0 7.032 5.133 11.267 4.455 3.78 9.664 3.327 10.645 3.251-.151 5.066-1.208 14.064-7.096 22.684-3.247 4.764-8.456 12.249-16.76 12.854-8.153.605-15.098-5.519-16.608-6.881-1.51-1.361-2.793-2.797-4.228-4.688-2.793-3.78-7.474-11.342-10.342-24.045" stroke="#C3C8E1" stroke-width="2" stroke-miterlimit="10" stroke-linecap="round" stroke-linejoin="round"/><path d="M264.319 152.513c-.075-.908-.377-2.269-1.208-3.705-2.34-4.084-6.945-5.142-8.153-5.369-3.775-.832-5.209.378-9.286.68-10.342.832-13.89-5.897-21.515-3.327-1.132.379-4.605 1.513-5.36 4.462-.906 3.402 2.491 6.654 2.718 6.956-7.701 3.781-12.381 11.72-11.853 19.887.68 10.434 9.512 15.878 10.267 16.332m44.239-37.882c.68-.151 2.114-.605 3.473-1.815 1.963-1.89 2.265-4.234 2.265-4.915.151 1.059.302 3.025-.378 5.217-.377 1.21-.906 2.193-1.434 2.874 1.661 0 4.227.302 6.87 1.663 8.228 4.159 11.097 15.35 9.965 23.819-.378 2.419-1.359 6.956-4.983 11.871m-7.625 10.888c.68-.076 5.209-.681 7.172-4.386 1.057-1.89 1.661-5.141.227-6.578a2.806 2.806 0 00-1.208-.681c-1.586-.302-2.944 1.21-3.095 1.362m-48.618 10.359c-.679-.076-5.737-.53-7.927-4.462-.981-1.89-1.66-5.141-.226-6.578.151-.151.528-.529 1.208-.68 1.51-.303 2.793 1.436 2.869 1.512m18.269 47.561c.906-2.571 1.963-6.352 2.114-11.04a36.174 36.174 0 00-1.057-10.056m20.911 21.096c-.906-2.495-2.038-6.276-2.114-11.04-.075-6.124 1.586-10.888 2.718-13.61m-26.347 20.718c1.661 1.739 4.001 4.159 6.644 7.183 2.793 3.176 10.418 11.796 9.512 12.703-.227.227-.831-.075-1.586-.453-6.114-2.647-15.929-3.025-17.891-3.101-.453 0-1.737-.075-2.114-.831-.302-.605.075-1.437.226-1.664.755-1.512 1.963-5.822 3.926-14.744" stroke="#C3C8E1" stroke-width="2" stroke-miterlimit="10" stroke-linecap="round" stroke-linejoin="round"/><path d="M267.037 233.646a43.164 43.164 0 00-6.644 7.183c-4.001 5.293-7.247 12.098-6.416 12.703.226.152.679-.302 1.66-.831 3.549-2.193 8.456-2.344 14.722-2.647.453 0 1.736-.075 2.113-.832.302-.605-.075-1.436-.226-1.663-.755-1.512-1.963-5.822-3.926-14.745m-47.334 26.011c8.153-14.215 14.117-24.65 14.797-25.784.075-.076.151-.302.377-.454.755-.68 1.888-.378 3.473-.151.679.076 1.585.151 2.793.151" stroke="#C3C8E1" stroke-width="2" stroke-miterlimit="10" stroke-linecap="round" stroke-linejoin="round"/><path d="M283.494 258.825c-8.153-14.215-14.117-24.65-14.796-25.784-.076-.076-.151-.302-.378-.454-.755-.68-1.887-.378-3.472-.151a24.53 24.53 0 01-2.794.151m23.403 25.86c-1.736-1.815-2.416-3.478-2.718-4.612-.83-3.327 1.057-4.159.906-9.452-.075-1.815-.377-4.007.529-4.461.377-.227.83 0 .83 0 .302.151.831.529 1.057 3.176.227 2.268.076 3.327.83 3.856.151.151.529.378.831.302 1.812-.378 2.34-9.451 3.095-13.761.076-.378.302-1.437 1.133-2.117.301-.227.754-.605 1.056-.454 1.133.529-1.66 8.469-.151 11.947.076.151.151.378.378.378 1.208.151 4.454-9.074 4.756-10.057.075-.151.302-.756.906-1.285.226-.227.755-.681 1.283-.529.378.075.604.453.604.529.302.529.151 1.134.076 1.361-.906 3.1-1.359 4.688-2.19 6.805-.528 1.361-1.434 4.083-1.056 4.234.528.227 4.454-5.519 5.133-7.258 0-.076.227-.605.755-1.135.302-.302.755-.756 1.208-.605.528.152.755 1.059.83 1.21.302 1.21-.377 2.344-.528 2.722-1.963 3.403-5.058 7.032-4.832 7.259.151.151 1.737-.605 3.095-1.739.755-.605 1.359-1.285 2.341-1.361.226 0 .755-.075.981.227.604.832-2.038 3.856-3.322 5.293-1.962 2.344-4.68 5.822-7.624 10.813" stroke="#C3C8E1" stroke-width="2" stroke-miterlimit="10" stroke-linecap="round" stroke-linejoin="round"/><path opacity=".29" d="M323.958 258.523c4.53 1.436 15.25 5.595 22.346 16.408a38.739 38.739 0 014.379 9.225" stroke="#4754A2" stroke-width="2" stroke-miterlimit="10" stroke-linecap="round" stroke-linejoin="round"/><path d="M197.81 222.757v5.066m0-11.568v4.158m-3.095.983h2.34m1.434 0h2.341" stroke="#C3C8E1" stroke-width="2" stroke-miterlimit="10" stroke-linecap="round" stroke-linejoin="round"/><path opacity=".29" d="M416.739 320.904v4.99m0-11.569v4.159m-3.095.983h2.34m1.435 0h2.34" stroke="#4753A2" stroke-width="2" stroke-miterlimit="10" stroke-linecap="round" stroke-linejoin="round"/><path d="M303.953 179.053v4.99m0-11.493v4.083m-3.095 1.059h2.34m1.434 0h2.34" stroke="#C3C8E1" stroke-width="2" stroke-miterlimit="10" stroke-linecap="round" stroke-linejoin="round"/></svg>