<svg width="126" height="126" fill="none" xmlns="http://www.w3.org/2000/svg"><mask id="a" maskUnits="userSpaceOnUse" x="-1" y="0" width="127" height="126"><path d="M63 126c34.794 0 63-28.206 63-63S97.794 0 63 0 0 28.206 0 63s28.206 63 63 63z" fill="#F6F6F7"/></mask><g mask="url(#a)"><path d="M63 126c34.794 0 63-28.206 63-63S97.794 0 63 0 0 28.206 0 63s28.206 63 63 63z" fill="#fff"/><path d="M111.937 130.625a22.769 22.769 0 00-.787-1.687C100.8 108.8 75.656 106.157 75.6 94.963c0-1.125.225-2.869 1.687-5.006 1.575-1.238 3.038-2.644 4.5-4.22C86.4 80.62 87.862 74.15 90 67.626c1.856-5.625 3.262-11.475 3.15-17.38-.056-2.926-.9-9.845-6.019-16.257-7.931-9.9-20.025-10.463-21.544-10.463-1.518.057-13.612.563-21.543 10.463-5.12 6.412-5.907 13.331-6.02 16.256-.168 5.906 1.295 11.756 3.15 17.381 2.138 6.525 3.6 12.994 8.213 18.113a35.128 35.128 0 004.5 4.219c1.407 2.137 1.688 3.88 1.688 5.006-.056 11.194-25.2 13.837-35.55 33.975-.281.562-.563 1.125-.788 1.687h92.7z" fill="#47A8A5"/><path d="M106.875 131.75a22.385 22.385 0 00-.788-1.687c-10.35-20.138-35.493-22.782-35.55-33.975 0-1.125.225-2.87 1.688-5.007 1.575-1.237 3.037-2.643 4.5-4.218 4.612-5.12 6.075-11.588 8.212-18.113 1.857-5.625 3.263-11.475 3.15-17.381-.056-2.925-.9-9.844-6.018-16.256-7.932-9.9-20.025-10.463-21.544-10.463-1.519.056-13.613.563-21.544 10.463-5.119 6.412-5.906 13.33-6.019 16.256-.168 5.906 1.294 11.756 3.15 17.381 2.138 6.525 3.6 12.994 8.213 18.113a35.136 35.136 0 004.5 4.218c1.406 2.138 1.687 3.882 1.687 5.007-.056 11.193-25.2 13.837-35.55 33.975-.28.562-.562 1.125-.787 1.687h92.7zM60.412 24.65c.055 0 .055 0 0 0h.055-.055z" stroke="#5B5B5B" stroke-width="2" stroke-miterlimit="10"/></g></svg>