<svg width="278" height="251" fill="none" xmlns="http://www.w3.org/2000/svg"><path d="M206.752 111.927c13.996 34.993 31.685 40.621 29.935 64.229-1.101 14.683-8.941 25.291-12.246 29.237-12.829 15.394-31.102 18.693-48.791 21.733-28.121 4.721-27.214-3.493-58.381.647-22.419 2.975-34.082 8.732-49.374 1.94-7.516-3.363-12.44-8.15-16.911-12.613-6.739-6.662-18.856-18.628-20.735-36.286-2.397-22.38 13.218-39.068 16.393-42.496 22.484-24.062 56.048-20.311 60.131-19.793.324-.582.712-1.229 1.101-1.811-5.378-8.538-7.97-18.305-7.581-27.813.518-13.778 7.387-22.962 10.043-26.52.843-1.1 18.661-24.19 46.135-21.604 15.551 1.423 25.918 10.35 28.575 12.743 15.874 14.553 9.524 27.942 21.706 58.407z" fill="#F79C51" fill-opacity=".3"/><path d="M113.446 148.214l13.283 46.894-.194.647-62.722 31.435-21.901-63.517 71.534-15.459z" fill="#fff"/><path d="M144.807 197.307l.324.259c-1.426 1.746-2.851 3.493-4.341 5.239-9.007 10.996-17.625 21.863-25.789 32.6l-.518-.388-50.606-7.827 62.722-31.5.195-.582 18.013 2.199z" fill="#E8ECEC"/><path d="M113.705 237.087c.454-.582.842-1.1 1.296-1.682 8.229-10.672 16.782-21.604 25.789-32.6 1.425-1.746 2.915-3.492 4.341-5.239 8.488-10.284 16.976-20.181 25.27-29.689" stroke="#5C5C5C" stroke-width="3" stroke-miterlimit="10" stroke-linecap="round"/><path d="M144.807 197.307l-18.078-2.199-13.283-46.894-71.534 15.459 21.9 63.517 50.671 7.827" stroke="#5C5C5C" stroke-width="2" stroke-miterlimit="10" stroke-linecap="round" stroke-linejoin="round"/><path d="M221.451 160.151c3.37 26.131 10.951 44.695 17.301 56.984 6.479 12.419 10.172 29.56 10.172 29.56s-9.2 3.687-22.548 3.881c-10.497.129-18.856-.712-26.242-1.488a863.035 863.035 0 01-28.64-3.622c-38.553-5.175-51.642-1.746-53.975-7.827-2.073-5.368 6.739-12.289 18.985-24.643 16.782-17.012 29.547-33.829 39.202-48.447l45.745-4.398z" fill="#4EACDB"/><path d="M222.525 157.693c-13.802 15.459-39.396 10.866-43.284 10.219a58.176 58.176 0 01-15.551-5.045c1.491-.711 4.147-2.07 6.933-4.528a30.622 30.622 0 004.212-4.721c4.277-6.21 4.795-12.419 4.86-14.877a5.255 5.255 0 002.008 0c5.443-.906 8.813-9.638 6.221-13.26-1.037-1.488-3.305-2.523-5.573-2.005-2.267.517-3.434 2.587-3.628 2.975-1.296-.517-4.147-1.811-6.285-4.851-3.564-5.045-2.139-10.737-1.944-11.578a60.316 60.316 0 01-7.063-3.557c-.713-.388-6.868-4.14-12.57-10.673-1.037-1.164-2.074-2.458-2.722-4.075h-.064c-3.823 6.856-8.165 16.429-8.877 28.331-.13 2.07-.26 4.528-.26 7.179 0 1.1-.129 2.006-.259 2.782h-.065c-1.879-.388-4.341-1.229-6.738-3.428-3.823-3.428-5.378-8.732-5.314-17.076.195-17.723 7.711-47.994 23.91-50.323 2.009-.323 3.758-.064 4.989.13 2.398-2.264 6.415-5.434 11.987-7.245 4.99-1.617 8.942-1.487 22.679-.453 11.987.906 18.013 1.359 19.374 1.682 7.581 1.617 18.596 4.075 25.14 12.16 3.24 4.01 4.018 11.32 5.508 25.679 3.175 31.5-1.166 30.142 1.814 43.79.454 1.94 1.62 7.115-.324 12.807-.648 1.94-2.397 6.985-7.646 9.573-5.183 2.522-10.367.776-11.468.388z" fill="#232020"/><path d="M178.695 139.676c-.065 2.458-.583 8.732-4.86 14.877-1.361 1.94-2.786 3.492-4.212 4.721l-.129-.194c-.259-1.035-.843-2.587-2.138-4.139-.713-.906-1.426-1.553-2.074-2.005 0 0-3.434 1.035-5.832 1.746-5.961 1.746-12.505-3.881-13.801-5.045-3.628-3.105-5.637-7.309-6.609-11.708-1.426-.97-2.981-2.328-2.786-3.686a1.5 1.5 0 01.453-.906c.389-.582.778-1.358 1.037-2.523.194-.776.259-1.681.259-2.781 0-2.652.13-5.11.259-7.18.713-11.901 5.054-21.474 8.877-28.33h.065c.713 1.617 1.75 2.91 2.722 4.075 5.702 6.468 11.857 10.22 12.57 10.672a60.257 60.257 0 007.063 3.558c-.26.905-1.62 6.533 1.943 11.578 2.139 3.04 5.054 4.398 6.286 4.851.194-.388 1.36-2.393 3.628-2.975 2.203-.518 4.536.517 5.573 2.005 2.591 3.622-.778 12.354-6.221 13.26a3.862 3.862 0 01-2.073.129z" fill="#fff"/><path d="M148.824 123.764c0 .712-.453 1.488-1.166 1.682-.518.129-.972-.065-1.426-.323-.388-.195-1.231-.647-1.49-1.553-.065-.129-.194-.711.065-1.229.389-.776 1.49-1.164 2.268-.905.583.194.907.711 1.231 1.164.259.323.518.647.518 1.164zm.324-19.857a12.55 12.55 0 014.212 2.652c.518-.259.972-.518 1.49-.776a12.806 12.806 0 01-3.369-1.1c-.389-.194-.843-.129-1.232.065a1.411 1.411 0 00-.518.323c-.065.065-.13.259 0 .324 1.231.646 2.527 1.099 3.888 1.293.389.065.842-.064 1.166-.259.13-.064.518-.323.324-.517a12.13 12.13 0 00-4.406-2.781c-.389-.13-.972 0-1.296.194-.259.129-.648.453-.259.582z" fill="#5C5C5C"/><path d="M167.744 159.727a10.468 10.468 0 00-2.073-4.075c-.713-.905-1.426-1.552-2.074-2.005 0 0-3.434 1.035-5.831 1.747-5.962 1.746-12.506-3.881-13.802-4.981-3.628-3.105-5.637-7.309-6.609-11.707-1.426-.971-2.981-2.329-2.786-3.687a1.5 1.5 0 01.453-.906c.648-.905 1.296-2.522 1.296-5.304 0-2.652.13-5.174.259-7.179.713-11.902 5.054-21.475 8.877-28.33" stroke="#5C5C5C" stroke-width="2" stroke-miterlimit="10" stroke-linecap="round"/><path d="M173.187 138.576c1.102.841 3.369 2.135 5.832 1.747 5.443-.906 8.812-9.638 6.22-13.26-1.037-1.488-3.305-2.523-5.572-2.005-2.333.517-3.435 2.587-3.629 2.975-1.296-.517-4.147-1.811-6.285-4.851-3.564-5.045-2.138-10.737-1.944-11.578a60.316 60.316 0 01-7.063-3.557c-.712-.389-6.868-4.14-12.57-10.673-1.425-1.617-2.981-3.557-3.434-6.403a12.814 12.814 0 01-.065-3.105" stroke="#5C5C5C" stroke-width="2" stroke-miterlimit="10" stroke-linecap="round"/><path d="M135.93 131.526c-1.879-.388-4.341-1.229-6.739-3.428-3.823-3.428-5.378-8.732-5.313-17.076.194-17.723 7.775-47.994 23.974-50.387 2.009-.324 3.758-.065 4.989.13 2.398-2.265 6.415-5.434 11.988-7.245 4.989-1.617 8.941-1.488 22.678-.453 11.987.905 18.013 1.358 19.374 1.682 7.581 1.617 18.596 4.075 25.141 12.16 3.239 4.01 4.017 11.32 5.507 25.679 3.175 31.5-1.166 30.141 1.814 43.789.454 1.941 1.62 7.115-.324 12.807-.647 1.941-2.397 6.986-7.645 9.573-5.249 2.587-10.497.841-11.599.453" stroke="#5C5C5C" stroke-width="2" stroke-miterlimit="10" stroke-linecap="round"/><path d="M225.866 148.796c-1.102 3.105-2.916 6.921-6.091 10.479-13.801 15.458-39.395 10.866-43.283 10.219a58.212 58.212 0 01-15.551-5.045c2.268-1.035 7.257-3.687 11.145-9.249 4.341-6.21 4.795-12.419 4.859-14.877m67.711 108.471c-1.36-6.209-3.758-15.523-7.84-26.519-3.499-9.509-6.091-14.295-8.942-20.957-3.628-8.732-8.099-21.669-10.691-39.068m-34.406 43.919a570.212 570.212 0 00-12.311 18.952 549.109 549.109 0 00-13.607 23.414" stroke="#5C5C5C" stroke-width="2" stroke-miterlimit="10" stroke-linecap="round"/><path opacity=".44" d="M86.556 180.426c1.23 3.298 2.267 5.756 2.656 6.403.13.259.389.647.907.97.195.13.39.194.519.259 0 .129 0 .194-.065.323-.13.712-.648 1.165-.972 1.359" stroke="#4753A2" stroke-width="2" stroke-miterlimit="10" stroke-linecap="round"/><path opacity=".44" d="M83.64 185.018c0 .389-.26.841-.648.971-.324.065-.583-.13-.713-.194-.13-.065-.518-.324-.583-.777-.065-.517.324-1.035.842-1.1.519-.064.843.518.972.647.065.13.13.259.13.453zm6.868-2.393c0 .323-.194.776-.583.841-.26.065-.518-.065-.648-.194-.13-.065-.454-.259-.454-.647-.064-.453.325-.906.713-.971.454-.064.778.453.843.583.064.129.13.259.13.388z" fill="#4753A2"/><path opacity=".44" d="M93.165 177.903c2.397-6.21 1.36-11.708-1.556-13.389-.583-.324-1.814-.841-3.887-.453-.324-.259-3.305-2.717-7.257-1.876-3.37.776-4.99 3.364-5.314 3.816-.907-.258-3.045-.646-5.377.194-2.787 1.035-4.147 3.235-4.99 4.593-.583.905-2.656 4.463-1.879 8.797.454 2.716 1.814 4.527 3.953 7.438 1.101 1.488 2.138 2.652 2.85 3.363" stroke="#4753A2" stroke-width="2" stroke-miterlimit="10" stroke-linecap="round"/><path opacity=".44" d="M73.272 188.963c-.064-.194-.518-1.099-1.62-1.423-.064 0-1.295-.388-1.879.195-1.036 1.034.26 5.239 2.657 5.756.648.13 1.685.065 2.527-.517a3.37 3.37 0 00.972-1.229c4.6 5.756 10.691 8.02 14.32 6.08 3.24-1.682 3.823-6.339 4.212-8.991.972-7.309-2.204-13.13-3.758-15.653-.908.518-3.759 1.941-7.387 1.294-2.074-.388-3.629-1.294-4.471-1.941.26 1.229 1.296 6.274-1.685 11.061-1.425 2.328-3.304 3.687-4.47 4.463" stroke="#4753A2" stroke-width="2" stroke-miterlimit="10" stroke-linecap="round"/><path opacity=".44" d="M81.113 200.865a34.335 34.335 0 00-3.434-3.558c-1.88-1.681-3.759-2.91-5.314-3.816" stroke="#4753A2" stroke-width="2" stroke-miterlimit="10" stroke-linecap="round"/><path opacity=".44" d="M81.631 208.239c.195-1.811.195-4.269-.259-7.051-.389-2.264-.972-4.204-1.555-5.692" stroke="#4753A2" stroke-width="2" stroke-miterlimit="10" stroke-linecap="round"/><path d="M45.475 164.19l21.188 60.672" stroke="#5C5C5C" stroke-width="2" stroke-miterlimit="10" stroke-linecap="round"/><path opacity=".44" d="M91.22 201.964a5.94 5.94 0 01-1.1-4.269" stroke="#4753A2" stroke-width="2" stroke-miterlimit="10" stroke-linecap="round"/><path d="M155.563 182.236c0-.129-.324-1.552-1.491-2.069-1.036-.453-2.462-.13-3.498.905a2.57 2.57 0 00-.584-.905c-.583-.647-1.36-.777-1.684-.906-3.953-.841-6.804-.776-6.804-.776-3.499 0-5.572.129-8.034.582-1.62.323-2.398.582-2.981 1.229-1.102 1.294-.778 3.105-.389 4.981.259 1.423.713 3.945 2.916 6.144 1.231 1.229 2.462 1.811 2.916 2.07 1.296.582 2.332.776 3.304.906.519.064 1.491.194 2.592.194 1.037-.065 3.693-.13 5.767-1.876 1.166-.97 2.333-3.881 2.333-3.881 3.693-1.876 6.026-4.528 5.637-6.598zm-3.499 2.782c-.648.647-1.426.841-1.814.905 0-.258 0-.646-.065-1.164 0-.841 0-1.229.065-1.423.388-.905 2.203-1.423 2.721-.841.453.453-.13 1.811-.907 2.523z" fill="#fff" stroke="#5C5C5C" stroke-width="2" stroke-miterlimit="10"/><path d="M140.919 175.898c-1.814-2.07-1.685-3.364-1.555-3.881.259-.97 1.101-2.005 2.073-3.105.583-.647.907-.97 1.167-1.617a4.22 4.22 0 00.194-2.264c-.13-.711-.324-1.229-.518-1.552.259.259.583.711.712 1.358.26.906.13 1.811-.324 2.976-.972 2.716-1.684 3.04-2.008 4.592-.195.776-.259 1.94.259 3.493z" stroke="#5C5C5C" stroke-miterlimit="10"/><path d="M53.963 122.406c-3.434 2.329-5.637 6.274-5.637 10.737 0 7.891 7.387 13.001 13.024 13.001 1.49 0 2.786-.388 3.693-.776l4.536 3.105c.13-1.876.26-3.687.324-5.563 2.657-2.328 4.341-5.627 4.406-9.379l-20.346-11.125z" fill="#fff" stroke="#DADCEC" stroke-miterlimit="10" stroke-linecap="round"/><path d="M114.871 120.53l-3.499-8.15a33.764 33.764 0 002.527-12.871c0-18.952-15.356-34.282-34.342-34.282-18.985 0-34.341 15.33-34.341 34.281 0 18.952 15.356 34.282 34.341 34.282a34.207 34.207 0 0026.502-12.484c2.916-.258 5.831-.517 8.812-.776z" fill="#fff" stroke="#DADCEC" stroke-miterlimit="10" stroke-linecap="round"/><path d="M69.06 102.743c1.11 0 2.01-.898 2.01-2.006 0-1.107-.9-2.005-2.01-2.005a2.007 2.007 0 00-2.008 2.005c0 1.108.9 2.006 2.009 2.006zm10.238 0c1.11 0 2.009-.898 2.009-2.006 0-1.107-.9-2.005-2.009-2.005a2.006 2.006 0 100 4.011zm10.174 0a2.007 2.007 0 002.008-2.006c0-1.107-.9-2.005-2.008-2.005-1.11 0-2.01.898-2.01 2.005 0 1.108.9 2.006 2.01 2.006zm24.233 134.344c.454-.582.842-1.1 1.296-1.682 8.229-10.672 16.782-21.604 25.789-32.6 1.425-1.746 2.915-3.492 4.341-5.239 8.488-10.284 16.976-20.181 25.27-29.689M64.924 225.966l62.722-31.436" stroke="#5C5C5C" stroke-width="2" stroke-miterlimit="10" stroke-linecap="round"/><path opacity=".24" d="M122.055 178.72c-.908-1.746-.972-3.816-1.361-5.692-.518-2.264-1.296-4.463-2.138-6.662-.843-2.199-1.62-4.463-2.009-6.792-.389-2.264-.324-4.786-.972-6.985-.648-2.199-2.203-3.622-4.471-4.011-2.138-.388-4.147.647-6.091 1.488-8.034 1.294-16.069 2.846-24.039 4.722a377.86 377.86 0 00-12.31 3.105c-3.953 1.099-7.841 2.587-11.988 2.199-3.629-.324-4.795 3.299-3.629 5.951a3.525 3.525 0 00-.647 2.328c.324 3.946 1.814 7.244 3.952 10.543 2.203 3.558 3.888 6.662 4.73 10.802 1.75 8.797 4.082 16.817 9.201 24.32 1.037 1.488 2.98 2.588 4.795 1.941a252.152 252.152 0 009.784-3.687c-1.36-.517-2.333-2.134-1.879-3.493a9.184 9.184 0 011.75-3.105c-1.232-.258-2.074-1.552-2.139-2.781-.194-4.075-1.879-7.374-5.183-9.896-2.722-2.07-5.249-3.881-7.582-6.404-1.943-2.069-4.211-4.463-5.054-7.309-.842-2.716-.388-5.821.324-8.473 1.037-4.269 5.378-11.061 10.432-7.956 2.203-2.328 4.795-4.269 8.1-4.722 4.212-.517 10.497-.258 12.765 4.011 2.008 3.751 1.814 9.12 1.101 13.195a2.414 2.414 0 01-.842 1.423c.13.323.259.582.324.905 1.101 3.04 1.296 6.145.13 9.185-.39.97-.973 1.876-1.62 2.652.194 2.458-.908 4.528-2.981 5.692.907.776 1.814 1.617 2.527 2.652.389.582.454 1.358.324 2.07 1.49.388 3.045.647 4.212 1.682 1.166 1.034 1.36 2.651.777 3.945l2.916-1.358c4.276-2.07 8.618-4.14 12.894-6.274 3.629-1.747 9.784-3.364 10.756-7.892.713-4.463-3.045-7.697-4.859-11.319zm-45.681 27.813c-.26.065-.518.194-.778.259-.259-.453-.518-.97-.777-1.423.453.453.972.841 1.555 1.164z" fill="#DADCEB"/><path d="M148.565 181.073c0 .517-3.629.906-8.1.906s-8.099-.389-8.099-.906c0-.518 3.628-.906 8.099-.906 4.471-.065 8.1.388 8.1.906z" stroke="#5C5C5C" stroke-miterlimit="10"/></svg>