<svg width="278" height="251" fill="none" xmlns="http://www.w3.org/2000/svg"><path d="M183.181 133.218l-14.933.721 6.864-13.22h.061c-3.433-6.97-5.3-14.841-5.3-23.133 0-29.263 23.786-52.997 53.112-52.997s53.112 23.734 53.112 52.997c0 29.262-23.786 52.997-53.112 52.997-15.536 0-29.506-6.67-39.201-17.245l-.603-.12z" fill="#fff" stroke="#DADCEC" stroke-miterlimit="10" stroke-linecap="round" stroke-linejoin="round"/><path d="M144.281 144.093c-.843-6.429 1.566-9.193 1.566-14.361 0-38.696-32.638-70.061-72.924-70.061C32.638 59.67 0 91.036 0 129.672c0 7.932 1.566 14.481 1.566 14.481 1.927 11.597 3.733 12.498 3.793 19.408.06 4.928-.903 5.048-2.529 17.666a311.875 311.875 0 00-1.264 11.657c-1.144 16.043 24.87 53.778 59.193 56.782 15.717 1.382 17.885-5.828 40.948-4.807 20.113.902 21.98 6.61 34.565 4.807 19.751-2.824 39.864-20.369 41.851-40.138 1.024-10.275-3.191-18.627-6.383-25.116-10.056-19.949-25.231-23.675-27.459-40.319z" fill="#F15D46" fill-opacity=".3"/><path d="M63.482 190.682c-5.24 9.674-8.672 17.966-10.9 23.975-1.023 2.764-.06.361-3.191 10.035-3.192 9.674-1.927 19.468-1.927 19.468s-.361.541-.12.901c5.78 8.172 23.364-4.987 50.522 1.803 6.082 1.502 9.514 2.283 14.332.661 8.912-3.005 15.897-13.64 13.488-18.868-.542-1.141-1.204-1.382-3.251-3.064-4.396-3.726-6.383-7.09-8.973-10.756-2.589-3.665-6.804-9.073-13.79-16.283-3.974.721-10.598 1.442-18.486-.181a49.465 49.465 0 01-17.704-7.691z" fill="#4EACDB"/><path d="M175.005 246.263h-59.194l18.065-37.374h62.205l-21.076 37.374z" fill="#E8ECEC"/><path d="M86.93 129.574c-3.794 7.751-10.177 11.957-13.97 14.06-3.252-3.845-7.407-6.189-10.237-5.107-4.035 1.562-4.818 10.094-1.626 15.442.3.481 3.733 6.069 9.936 6.069 3.191 0 5.54-1.502 6.503-2.223.422 1.141.843 2.223 1.325 3.244h-.06c-3.734 2.164-5.902 5.949-5.902 9.674 0 .902.12 1.743.362 2.584 1.505 4.987 6.624 6.67 7.045 6.85-2.288 1.803-5.84 4.206-10.658 5.768-1.747.601-3.433.962-5.119 1.262-12.826 2.163-23.304-3.725-24.267-4.266-13.73-8.052-19.03-23.854-17.524-35.932.301-2.163.843-4.747 5.54-14.421 7.648-15.743 13.429-23.975 28.303-46.627 9.574-14.602 11.621-17.966 17.222-21.211 2.469-1.442 12.645-7.21 24.629-3.365 10.056 3.245 14.994 11.296 16.319 13.52 3.613-1.623 10.116-4.026 18.306-3.786 12.585.36 25.773 6.79 32.818 17.846 5.661 8.893 5.359 17.485 4.757 31.846-.421 10.455-2.95 20.069-8.069 38.696-7.106 26.018-9.936 29.202-12.525 31.245-8.19 6.67-18.788 6.91-29.266 7.091-7.708.12-12.224-1.142-16.018-3.545-2.95-1.923-4.877-4.207-6.082-5.889a12.872 12.872 0 011.566-4.386c.241-.361.422-.721.602-1.022l.121-.12c6.503 2.944 15.054 5.107 23.966 2.343 6.504-2.043 10.779-5.888 12.465-7.571 4.396-4.446 6.203-9.013 10.057-21.991a814.182 814.182 0 007.045-25.417c-5.179.18-16.921-.481-27.158-9.194-8.912-7.571-11.682-17.064-12.525-20.609-.06 1.862-.843 15.863-12.465 23.974-6.022 4.327-12.345 5.048-15.416 5.168z" fill="#232020"/><path d="M154.615 130.235c-2.469 9.794-4.938 18.326-7.046 25.477-3.854 12.979-5.66 17.605-10.056 21.992-1.686 1.682-5.962 5.588-12.465 7.571-8.912 2.764-17.523.6-23.967-2.344-6.383-2.944-10.779-6.669-11.501-7.27-2.59-2.284-7.226-6.97-10.719-14.602-.482-1.021-.903-2.103-1.325-3.244-.963.721-3.312 2.223-6.503 2.223-6.142 0-9.635-5.528-9.936-6.069-3.192-5.348-2.469-13.88 1.626-15.442 2.83-1.082 6.925 1.262 10.237 5.107 3.793-2.043 10.237-6.309 13.97-14.06 3.071-.12 9.394-.841 15.536-5.108 11.622-8.111 12.405-22.112 12.465-23.974.843 3.485 3.613 12.979 12.525 20.61 10.177 8.652 21.98 9.313 27.159 9.133z" fill="#fff"/><path d="M101.262 198.794l-.06.06c-5.36.841-15.296 1.623-26.315-2.403-4.998-1.863-9.033-4.206-12.044-6.37l-.06-.06c.602-.961 1.264-1.922 1.867-2.824 1.686-.3 3.372-.661 5.118-1.262a35.556 35.556 0 0010.659-5.768c-.482-.12-5.6-1.863-7.046-6.85a9.55 9.55 0 01-.361-2.584h.18a47.029 47.029 0 0015.416 10.215c4.396 1.803 8.43 2.644 11.622 3.065l.181.06c-.602 1.141-1.265 2.583-1.566 4.386-.662 3.665.422 6.97 2.409 10.335z" fill="#E7B122"/><path d="M101.021 182.931l-.121.12c-.18.301-.421.661-.602 1.022l-.18-.06c-3.192-.421-7.226-1.322-11.622-3.065-7.287-3.004-12.405-7.21-15.416-10.215h-.18c0-3.725 2.107-7.571 5.9-9.674h.06c3.493 7.632 8.07 12.318 10.72 14.602.662.6 5.058 4.326 11.441 7.27z" fill="#fff"/><path d="M138.018 150.703c0 .721-.481 1.742-1.385 1.863-.843.12-1.565-.541-1.806-1.142-.482-1.322.903-2.944 1.686-2.884.482.06.843.721 1.084 1.141.241.301.421.601.421 1.022z" fill="#5C5C5C"/><path d="M110.439 131.595h6.022l-.542-1.081s-.181.12-.121.12c.061-.06-.12.06-.12.06-.121.06 0 0-.06 0-.061 0-.121.06-.241.06h-.663c-.843 0-1.625-.12-2.408.12a1.04 1.04 0 00-.723.601c-.06.301.06.541.361.661 1.145.361 2.349.601 3.493.781.422.06.963-.12 1.144-.541.181-.42-.181-.721-.542-.781-1.084-.12-2.107-.3-3.131-.661-.121.421-.241.842-.301 1.262.662-.18 1.505-.06 2.228-.06.783 0 1.626-.24 2.288-.781.241-.18.361-.481.241-.721-.12-.301-.482-.361-.783-.361-1.987-.06-4.034-.06-6.022 0-.421 0-.903.301-.963.721-.06.481.482.601.843.601zm26.315 3.125c1.204.06 2.469.36 3.552 1.021.422-.24.783-.42 1.205-.661h-.482c-.06 0-.06 0 0 0h-.361c-.301 0-.663-.06-.964-.06-.18 0-.481 0-.662.06-.181.06-.422.12-.602.241-.061.06-.241.18-.181.3s.241.12.301.12c.723.12 1.445.12 2.168.06.301 0 .662-.12.963-.3.061-.06.422-.301.241-.421-1.264-.721-2.649-1.081-4.094-1.141-.422 0-.904.06-1.205.3-.06.06-.241.18-.18.3 0 .181.18.181.301.181z" fill="#5B5B5B"/><path d="M151.206 131.295c-2.469 9.734-4.938 18.326-7.045 25.417-3.854 12.978-5.661 17.605-10.057 21.991-1.686 1.683-5.961 5.589-12.465 7.571-17.764 5.468-34.023-8.412-35.468-9.674-2.95-2.583-8.49-8.232-12.043-17.845-.964.721-3.312 2.223-6.504 2.223-6.142 0-9.635-5.528-9.936-6.069-3.191-5.408-2.469-13.88 1.626-15.442 2.83-1.082 6.985 1.261 10.237 5.107 3.794-2.043 10.237-6.309 14.03-14.06a26.571 26.571 0 001.747-4.507" stroke="#5C5C5C" stroke-width="3" stroke-miterlimit="10" stroke-linecap="round" stroke-linejoin="round"/><path d="M114.895 148.54c-.061.12-.783 1.382-1.927 1.322-.783-.06-1.265-.661-1.566-1.022-.181-.24-.542-.721-.602-1.382 0-.661.301-1.081.361-1.202.06-.12.482-.721 1.325-.901.903-.18 2.047.241 2.469 1.142.542.901.06 1.863-.06 2.043z" fill="#5C5C5C"/><path d="M208.991 86.972l3.492 7.03 7.829 1.142c.421.06.542.54.24.841l-5.66 5.468 1.325 7.751a.508.508 0 01-.723.541l-6.985-3.665-6.985 3.665a.508.508 0 01-.723-.541l1.325-7.751-5.661-5.468c-.301-.3-.12-.781.241-.841l7.829-1.142 3.492-7.03c.241-.36.783-.36.964 0z" fill="#FFCB05"/><path d="M206.545 88.753l3.493 7.03 7.828 1.142c.422.06.542.54.241.841l-5.66 5.468 1.324 7.751a.507.507 0 01-.722.541l-6.985-3.665-6.986 3.665a.507.507 0 01-.722-.541l1.325-7.751-5.661-5.468c-.301-.3-.12-.781.241-.841l7.828-1.142 3.493-7.03c.301-.36.783-.36.963 0z" stroke="#5C5C5C" stroke-width="1.5" stroke-miterlimit="10" stroke-linecap="round" stroke-linejoin="round"/><path d="M252.793 93.08c1.204 1.862 1.866 4.085 1.866 6.489 0 6.609-5.359 11.957-11.983 11.957-6.624 0-11.983-5.348-11.983-11.957 0-6.61 5.359-12.018 11.983-12.018 1.807 0 3.553.541 3.553.541a10.93 10.93 0 012.77 1.262l-1.204 1.202-.542.54c-.061.902-.181 1.743-.241 2.644a7.273 7.273 0 00-4.396-1.442 7.265 7.265 0 00-7.286 7.27 7.264 7.264 0 007.286 7.271 7.265 7.265 0 007.286-7.27c0-1.683-.602-3.245-1.565-4.507h2.348c.783-.66 1.445-1.322 2.108-1.983z" fill="#F15C47"/><path d="M242.676 96.745c1.506 0 2.77 1.262 2.77 2.764 0 1.502-1.264 2.764-2.77 2.764-1.505 0-2.77-1.262-2.77-2.764 0-1.502 1.265-2.764 2.77-2.764z" fill="#F15C47"/><path d="M251.468 93.68c1.204 1.863 1.867 4.086 1.867 6.49 0 6.609-5.36 11.957-11.984 11.957-6.623 0-11.983-5.348-11.983-11.957 0-6.61 5.36-11.958 11.983-11.958 2.409 0 4.697.721 6.564 1.983" stroke="#5C5C5C" stroke-width="1.5" stroke-miterlimit="10"/><path d="M248.638 100.11a7.266 7.266 0 01-7.287 7.27 7.265 7.265 0 01-7.286-7.27 7.265 7.265 0 017.286-7.271 7.33 7.33 0 014.998 1.983l.241.24.241.24c1.084 1.322 1.807 3.005 1.807 4.808z" stroke="#5C5C5C" stroke-width="1.5" stroke-miterlimit="10"/><path d="M241.351 102.874c1.53 0 2.77-1.238 2.77-2.764a2.767 2.767 0 00-2.77-2.764 2.767 2.767 0 00-2.77 2.764 2.767 2.767 0 002.77 2.764z" stroke="#5C5C5C" stroke-width="1.5" stroke-miterlimit="10"/><path d="M255.382 89.955l-5.179 5.167-3.854.12.121-3.905 5.178-5.168c0 1.262-.06 2.524-.06 3.786h3.794z" stroke="#5C5C5C" stroke-width="1.5" stroke-miterlimit="10" stroke-linejoin="round"/><path d="M246.349 95.183l-4.937 4.987" stroke="#5C5C5C" stroke-width="1.5" stroke-miterlimit="10" stroke-linecap="round" stroke-linejoin="round"/><path d="M131.394 143.192c-.963 1.682-3.492 6.73-2.348 13.099.542 3.125 1.806 5.468 2.77 6.97" stroke="#5B5B5B" stroke-width="2" stroke-miterlimit="10" stroke-linecap="round"/><path d="M110.017 165.184c.903.721 2.409 1.802 4.456 2.463 2.65.902 4.998.782 6.263.661m32.638-37.193c-2.77.24-17.162 1.321-29.326-9.074-8.912-7.571-11.682-17.064-12.465-20.609-.06 1.862-.843 15.863-12.465 23.974-6.142 4.266-12.465 4.987-15.536 5.108" stroke="#5B5B5B" stroke-width="2" stroke-miterlimit="10"/><path d="M75.392 162.059c-4.636 2.644-6.804 7.812-5.48 12.258 1.446 4.987 6.624 6.67 7.046 6.85-2.288 1.803-5.841 4.206-10.659 5.768-15.054 5.048-28.302-2.403-29.326-3.004-13.729-8.052-19.028-23.854-17.523-35.932.241-2.163.843-4.747 5.54-14.421 7.648-15.743 13.429-23.975 28.302-46.627C62.867 72.349 64.914 68.984 70.515 65.8c2.469-1.442 12.645-7.21 24.629-3.365 10.056 3.245 14.994 11.296 16.318 13.52 3.613-1.623 10.117-4.026 18.307-3.786 12.585.36 25.773 6.79 32.818 17.846 5.66 8.893 5.359 17.485 4.757 31.846-.421 10.515-2.95 20.069-8.069 38.696-7.106 26.018-9.936 29.142-12.525 31.245-8.19 6.67-18.788 6.85-29.266 7.031-7.708.12-12.224-1.142-16.018-3.606-2.95-1.922-4.877-4.206-6.082-5.888" stroke="#5B5B5B" stroke-width="2" stroke-miterlimit="10" stroke-linecap="round" stroke-linejoin="round"/><path d="M121.278 227.795c-8.129-8.232-14.332-15.623-18.788-21.331-4.576-5.889-8.07-10.996-7.106-16.945.362-2.403 1.385-4.206 2.168-5.408m-54.136 62.251c0-10.816 1.566-26.799 9.575-43.804a97.89 97.89 0 018.37-14.481" stroke="#5B5B5B" stroke-width="2" stroke-miterlimit="10" stroke-linecap="round" stroke-linejoin="round"/><path d="M59.374 191.081c3.011 2.164 7.046 4.507 12.044 6.37 11.08 4.026 20.956 3.244 26.315 2.403m-1.024-14.781c-3.192-.421-7.226-1.262-11.622-3.065-7.286-3.004-12.405-7.21-15.416-10.215m19.33 45.426c2.65 6.49 6.082 13.52 10.358 20.85a164.432 164.432 0 006.262 9.855m64.975 1.742h-59.194l18.066-37.374h62.204l-21.076 37.374zm-36.672-37.374l-18.126 37.374" stroke="#5B5B5B" stroke-width="2" stroke-miterlimit="10" stroke-linecap="round" stroke-linejoin="round"/><path d="M106.826 53.242c5.901 1.622 9.936 6.55 10.056 11.897.12 5.528-3.974 9.133-4.577 9.674 1.506-.54 4.035-1.683 6.143-4.026.843-.961 2.228-2.524 2.709-4.867.121-.6.362-1.683.121-3.004-.121-.661-.602-2.524-3.372-4.867-3.854-3.245-8.611-4.387-11.08-4.807z" stroke="#5B5B5B" stroke-width="2" stroke-miterlimit="10" stroke-linejoin="round"/></svg>