<svg width="278" height="252" fill="none" xmlns="http://www.w3.org/2000/svg"><path d="M234 168.37c0-11.214-7.329-20.091-11.119-24.705-10.551-12.791-21.543-14.835-23.249-25.64-.569-3.797.758-6.133.758-8.528 0-29.786-28.177-53.908-62.924-53.908-34.748 0-62.925 24.122-62.925 53.908 0 4.089.632 3.972.885 8.937 1.706 34.459-36.264 45.965-37.4 72.831-1.138 27.276 36.39 53.909 58.375 53.909 14.467 0 27.734-4.906 37.969-12.966 3.412 3.154 16.995 14.835 36.39 14.367 27.04-.642 42.139-24.296 43.402-26.457 5.118-8.294 1.959-9.112 10.677-28.327 6.192-13.608 9.161-16.237 9.161-23.421z" fill="#47A8A5" fill-opacity=".25"/><path d="M174.342 133.279c.817-.117 3.209-.409 4.959 1.112 2.509 2.105 1.808 6.025 1.633 6.844-1.4 7.371-12.601 10.12-13.36 10.295l-.467-.117c.759-2.222 1.459-4.679 2.276-7.429 1.108-3.802 2.042-7.429 2.683-10.763.992.175 1.692.175 2.276.058z" fill="#fff"/><path d="M180.701 89.523c.583 1.638 2.859 8.248.058 14.098-.7 1.521-2.158 3.626-2.158 3.626s.233 5.499-.175 9.243c-.234 1.989-.934 2.457-.992 4.446 0 1.053.117 1.755.175 2.34.175 1.053 1.05 7.371-1.692 9.477-.292.234-.758.468-1.517.643h-.058c-.584.117-1.284.117-2.217-.058.058-.176.058-.293.116-.468a61.31 61.31 0 001.517-6.611c.409-2.106.7-4.153.934-6.083 0 0-4.784 2.105-5.076 2.222-4.142 1.814-13.594.878-24.62-3.568a79.763 79.763 0 01-20.77-12.518c-1.108 1.579-3.034 3.977-6.067 6.083-10.152 6.903-24.096 7.488-24.096 7.488.175.995.35 1.872.525 2.749.7 5.558 1.75 10.764 3.093 15.619-.817-.058-2.1-.175-3.501-.819-.758-.351-1.517-.702-2.1-1.403-.759-.878-.7-1.697-.817-5.558-.117-4.27-.175-4.563-.058-6.025.058-1.58.233-2.866.35-3.919-.934-.234-2.45-.761-3.618-2.048-1.458-1.579-1.75-3.51-1.867-5.382-.466-7.195 1.342-12.167 1.342-12.167 2.567-7.196 11.96-33.461 26.488-32.7 2.158.116 5.659.818 9.801 4.504.817-1.17 5.542-7.722 13.594-8.541 5.134-.526 9.334 1.462 11.026 2.34 2.859 1.404 4.901 3.159 6.185 4.387 1.983.234 4.842.76 8.167 1.99 2.567.935 14.177 5.381 18.028 16.613z" fill="#232020"/><path d="M180.359 194.568v50.952h-82.32v-50.952h82.319z" fill="#E8ECEC"/><path d="M172.183 132.753c-.058.175-.058.292-.117.468h.059c-.7 3.334-1.576 6.961-2.684 10.763-.817 2.75-1.517 5.207-2.275 7.43-1.109 3.275-2.276 6.142-3.968 9.067-1.808 3.1-4.142 6.201-6.767 9.009-6.009 6.434-13.711 11.465-20.42 11.992-5.542.409-11.727-2.106-17.619-7.254-5.951-5.148-11.61-12.928-15.986-22.931-1.808-4.037-3.384-8.483-4.667-13.221h.058c-.291-1.111-.758-2.808-1.225-4.914-.467-2.047-.642-3.51-.934-5.148-.233-1.404-.525-3.275-.991-5.615-.175-.878-.35-1.755-.525-2.75 0 0 13.943-.643 24.095-7.488 3.034-2.047 4.959-4.504 6.067-6.083a79.763 79.763 0 0020.77 12.518c11.027 4.505 20.478 5.382 24.62 3.569.292-.117 5.076-2.223 5.076-2.223a86.182 86.182 0 01-.933 6.083c-.525 2.516-1.051 4.739-1.634 6.728z" fill="#fff"/><path d="M161.273 197.335v.234h-8.985v-.585a25.775 25.775 0 01-.116-2.223h.116c.35-.351.876-.878 1.692-1.346.934-.526 1.751-.643 2.276-.702.933.819 1.925 1.697 2.917 2.633.758.643 1.458 1.345 2.1 1.989z" fill="#F15D46"/><path d="M156.314 169.548c-1.167 3.1-2.392 6.903-3.209 11.29a61.32 61.32 0 00-.992 13.981c.059.761.059 1.521.117 2.223v.585h-29.229v-.117c.116-.819.233-1.696.291-2.691.117-2.164.117-4.68-.291-7.488a33.453 33.453 0 00-4.784-12.928l.058-.058c5.893 5.089 12.077 7.663 17.619 7.254 6.768-.585 14.411-5.616 20.42-12.051z" fill="#fff"/><path d="M123.293 194.761h.058c-.058.994-.175 1.93-.292 2.69v.059h-8.751v-.234c.642-.643 1.342-1.345 2.042-1.989.992-.936 1.925-1.813 2.917-2.632a6.48 6.48 0 012.276.702c.875.526 1.458 1.053 1.75 1.404z" fill="#F15D46"/><path d="M102.347 151.414l-.408.175c-8.46-1.111-13.652-6.142-13.36-10.296.058-.585.291-2.866 3.442-5.323.583.702 1.342 1.053 2.1 1.404 1.4.644 2.684.819 3.5.819 1.343 4.738 2.918 9.126 4.726 13.221z" fill="#fff"/><path d="M91.963 122.223c4.2 38.609 25.612 62.3 41.656 61.072 9.627-.761 21.295-10.822 27.188-21.001 2.858-4.914 4.259-9.652 6.242-16.496a137.533 137.533 0 004.726-23.575" stroke="#5C5C5C" stroke-width="2" stroke-miterlimit="10" stroke-linecap="round" stroke-linejoin="round"/><path d="M121.251 74.372c-4.143-3.686-7.643-4.388-9.802-4.505-14.527-.76-23.861 25.505-26.487 32.701 0 0-1.809 4.972-1.342 12.167.117 1.872.409 3.803 1.867 5.382 1.225 1.287 2.742 1.814 3.617 2.048-.175 1.053-.291 2.398-.408 3.919-.058 1.462 0 1.755.117 6.025.116 3.861.058 4.68.816 5.558.584.702 1.4 1.053 2.1 1.404 1.401.643 2.743.819 3.56.819-.35-1.112-.759-2.808-1.225-4.914-.467-2.048-.642-3.51-.934-5.148-.292-1.931-.817-4.797-1.517-8.307 0 0 13.944-.643 24.095-7.546 3.034-2.048 4.959-4.446 6.068-6.025a79.747 79.747 0 0020.77 12.518c11.026 4.505 20.478 5.382 24.62 3.627.292-.117 5.076-2.223 5.076-2.223a92.47 92.47 0 01-.934 6.084 84.112 84.112 0 01-1.633 7.02c2.217.409 3.325-.234 3.85-.585 2.742-2.048 1.867-8.366 1.692-9.477-.058-.585-.233-1.287-.175-2.34.058-1.989.758-2.457.992-4.446.467-3.744.175-9.242.175-9.242s1.458-2.048 2.158-3.627c2.801-5.85.467-12.46-.058-14.098-3.85-11.232-15.46-15.678-18.144-16.672-3.326-1.287-6.184-1.755-8.168-1.99-1.284-1.286-3.326-2.983-6.184-4.387-1.692-.819-5.893-2.807-11.027-2.34-7.993.878-12.718 7.43-13.535 8.6z" stroke="#5C5C5C" stroke-width="2" stroke-miterlimit="10" stroke-linecap="round" stroke-linejoin="round"/><path d="M99.606 153.344c-8.46-1.112-13.652-6.142-13.36-10.296.058-.585.291-2.925 3.442-5.323m75.553 15.619c.816-.175 11.96-2.983 13.36-10.296.175-.819.875-4.738-1.634-6.844-1.867-1.579-4.434-1.228-5.017-1.111m5.076 64.23h-82.32v50.952h82.32v-50.952zM115.942 176.1a33.47 33.47 0 014.784 12.928 33.057 33.057 0 010 10.237m29.229-.527c-.35-4.211-.35-9.769.816-16.145.817-4.387 2.042-8.19 3.209-11.232" stroke="#5C5C5C" stroke-width="2" stroke-miterlimit="10" stroke-linecap="round" stroke-linejoin="round"/><path d="M112.032 199.09a65.766 65.766 0 012.042-1.989c.992-.936 1.984-1.814 2.918-2.633.525.059 1.4.234 2.333.702a5.33 5.33 0 011.692 1.346m37.922 2.574a64.67 64.67 0 00-2.042-1.989 105.735 105.735 0 00-2.917-2.633c-.525.059-1.4.234-2.333.702a5.33 5.33 0 00-1.692 1.346" stroke="#5C5C5C" stroke-width="2" stroke-miterlimit="10" stroke-linecap="round" stroke-linejoin="round"/><path d="M114.308 131.934h-.817a9.631 9.631 0 00-.116 1.287h1.633c.584.058 1.167.058 1.75.175.117-.409.234-.877.35-1.287-.408.059-.816.059-1.166.059h-.992c-.117 0 .175 0 0 0-.234 0-.467 0-.642.117a.703.703 0 00-.408.409c-.117.351.116.761.525.761.875.058 1.808.058 2.683-.059.351-.058.817-.234.876-.643.116-.351-.234-.644-.525-.702-1.226-.117-2.509-.234-3.734-.234-.35 0-.934.292-.934.702 0 .468.409.585.817.585h.817c.35 0 .933-.293.933-.702-.233-.351-.642-.468-1.05-.468zm25.845.819c1.75 0 3.501-.059 5.309-.059.817 0 1.692-.175 2.392-.643.117-.117.467-.293.409-.468-.059-.176-.467-.234-.584-.234-1.75 0-3.5.292-5.134.877a1.994 1.994 0 00-.7.351.528.528 0 00-.35.351c-.117.351.35.351.584.351h3.033c.817 0 1.692-.234 2.392-.643.117-.117.467-.293.409-.468-.059-.176-.467-.234-.584-.234h-3.033c-.176.351-.351.643-.526.994.059 0 .117-.058.175-.058-.291.117-.35.117-.175.058.117-.058.234-.058.409-.117.175-.058.117-.058-.175.059.058 0 .116 0 .175-.059.117 0 .233-.058.408-.058h-.116.175c.116 0 .233 0 .408-.059h.175-.058.408c.758-.468 1.459-.877 2.217-1.345-1.75 0-3.5.058-5.309.058-.817 0-1.692.176-2.392.644-.117.117-.467.292-.409.468-.058.234.292.234.467.234zm-19.836 20.24c0 .702-.758 1.404-1.517 1.579-.933.234-1.691-.351-1.867-.526a1.719 1.719 0 01-.7-1.053c-.175-.819.234-1.872 1.109-2.223.758-.292 1.517.059 1.633.117.467.234.701.644.934.995.233.526.408.76.408 1.111zm25.904-1.521c-.059.761-.934 1.287-1.75 1.404-.759.059-1.809-.234-2.101-1.111-.292-.761.175-1.521.234-1.638.408-.585 1.166-1.053 1.867-.878.641.117.991.644 1.283.995.233.351.525.76.467 1.228z" fill="#5C5C5C"/><path d="M130.294 131.407c1.108 5.733 1.458 10.471 1.458 13.981.059 4.622-.175 7.196-.991 9.769a22.867 22.867 0 01-2.509 5.324c0 .234.058.409.117.585.291.76 1.4 1.228 2.742 1.17m-.117 6.376c.875.059 1.983 0 3.325-.292a11.212 11.212 0 002.917-.995" stroke="#5C5C5C" stroke-width="2" stroke-miterlimit="10" stroke-linecap="round"/><path d="M83.15 88.56l1.517 8.132-7.817-2.75c-2.042 1.346-5.076 3.1-9.043 4.33 0 0-5.018 1.579-10.269 1.579C38.461 99.85 23 84.349 23 65.22c0-19.129 15.519-34.63 34.597-34.63 19.077 0 34.48 15.501 34.48 34.63 0 5.148-1.576 10.296-1.576 10.296a34.898 34.898 0 01-7.35 13.045z" fill="#fff" stroke="#DADCEC" stroke-miterlimit="10" stroke-linecap="round" stroke-linejoin="round"/><ellipse cx="59.375" cy="67.089" rx="10.925" ry="10.35" fill="#47A8A5"/><circle cx="56.5" cy="67.089" r="10.75" stroke="#5B5B5B" stroke-width="1.5"/><path d="M53.05 67.403l2.841 3.136 5.209-5.75" stroke="#fff" stroke-width="1.5" stroke-linecap="round"/></svg>